G04*
G04 #@! TF.GenerationSoftware,Altium Limited,Altium Designer,26.5.0 (11)*
G04*
G04 Layer_Color=128*
G04 Board_Origin=39150000|34300000*
%FSLAX44Y44*%
%MOMM*%
G71*
G04*
G04 #@! TF.SameCoordinates,F537E913-F8B3-490E-9254-C49D637AD130*
G04*
G04*
G04 #@! TF.FilePolarity,Positive*
G04*
G01*
G75*
%ADD50C,0.1270*%
D50*
X-337970Y33020D02*
X-324970D01*
X-331470Y26520D02*
Y39520D01*
X-339240Y-222250D02*
X-326240D01*
X-332740Y-228750D02*
Y-215750D01*
X-337970Y-17780D02*
X-324970D01*
X-331470Y-24280D02*
Y-11280D01*
X-339240Y-171450D02*
X-326240D01*
X-332740Y-177950D02*
Y-164950D01*
X-56110Y30480D02*
X-53110D01*
X-54610Y28980D02*
Y31980D01*
X147910Y-137410D02*
X149910D01*
X148910Y-138410D02*
Y-136410D01*
X147910Y-157410D02*
X149910D01*
X148910Y-158410D02*
Y-156410D01*
X157910Y-147410D02*
X159910D01*
X158910Y-148410D02*
Y-146410D01*
X147910Y-147410D02*
X149910D01*
X148910Y-148410D02*
Y-146410D01*
X157910Y-157410D02*
X159910D01*
X158910Y-158410D02*
Y-156410D01*
X167910Y-157410D02*
X169910D01*
X168910Y-158410D02*
Y-156410D01*
X167910Y-137410D02*
X169910D01*
X168910Y-138410D02*
Y-136410D01*
X167910Y-144870D02*
X169910D01*
X168910Y-145870D02*
Y-143870D01*
X177910Y-137410D02*
X179910D01*
X178910Y-138410D02*
Y-136410D01*
X177910Y-157410D02*
X179910D01*
X178910Y-158410D02*
Y-156410D01*
X187910Y-157410D02*
X189910D01*
X188910Y-158410D02*
Y-156410D01*
X177910Y-147410D02*
X179910D01*
X178910Y-148410D02*
Y-146410D01*
X187910Y-147410D02*
X189910D01*
X188910Y-148410D02*
Y-146410D01*
X187910Y-137410D02*
X189910D01*
X188910Y-138410D02*
Y-136410D01*
X157910Y-137410D02*
X159910D01*
X158910Y-138410D02*
Y-136410D01*
X229190Y-138680D02*
X231190D01*
X230190Y-139680D02*
Y-137680D01*
X229190Y-158680D02*
X231190D01*
X230190Y-159680D02*
Y-157680D01*
X239190Y-158680D02*
X241190D01*
X240190Y-159680D02*
Y-157680D01*
X249190Y-158680D02*
X251190D01*
X250190Y-159680D02*
Y-157680D01*
X269190Y-158680D02*
X271190D01*
X270190Y-159680D02*
Y-157680D01*
X259190Y-158680D02*
X261190D01*
X260190Y-159680D02*
Y-157680D01*
X229190Y-148680D02*
X231190D01*
X230190Y-149680D02*
Y-147680D01*
X239190Y-148680D02*
X241190D01*
X240190Y-149680D02*
Y-147680D01*
X239190Y-138680D02*
X241190D01*
X240190Y-139680D02*
Y-137680D01*
X249190Y-138680D02*
X251190D01*
X250190Y-139680D02*
Y-137680D01*
X249190Y-151220D02*
X251190D01*
X250190Y-152220D02*
Y-150220D01*
X269190Y-148680D02*
X271190D01*
X270190Y-149680D02*
Y-147680D01*
X259190Y-138680D02*
X261190D01*
X260190Y-139680D02*
Y-137680D01*
X259190Y-148680D02*
X261190D01*
X260190Y-149680D02*
Y-147680D01*
X269190Y-138680D02*
X271190D01*
X270190Y-139680D02*
Y-137680D01*
X229640Y-121920D02*
X232640D01*
X231140Y-123420D02*
Y-120420D01*
X108220Y-96520D02*
X110220D01*
X109220Y-97520D02*
Y-95520D01*
X35590Y-96320D02*
X37590D01*
X36590Y-97320D02*
Y-95320D01*
X8660Y-212684D02*
X11660D01*
X10160Y-214184D02*
Y-211183D01*
X148360Y-172720D02*
X151360D01*
X149860Y-174220D02*
Y-171220D01*
X37100Y-71120D02*
X39100D01*
X38100Y-72120D02*
Y-70120D01*
X15090Y-94820D02*
X17090D01*
X16090Y-95820D02*
Y-93820D01*
X26090Y-94820D02*
X28090D01*
X27090Y-95820D02*
Y-93820D01*
X15090Y-83820D02*
X17090D01*
X16090Y-84820D02*
Y-82820D01*
X26090Y-83820D02*
X28090D01*
X27090Y-84820D02*
Y-82820D01*
X15090Y-72820D02*
X17090D01*
X16090Y-73820D02*
Y-71820D01*
X26090Y-72820D02*
X28090D01*
X27090Y-73820D02*
Y-71820D01*
X58190Y-170180D02*
X61190D01*
X59690Y-171680D02*
Y-168680D01*
X23410Y-63500D02*
X25410D01*
X24410Y-64500D02*
Y-62500D01*
X11200Y-36830D02*
X14200D01*
X12700Y-38330D02*
Y-35330D01*
X51070Y-63500D02*
X53070D01*
X52070Y-64500D02*
Y-62500D01*
X-16740Y-170180D02*
X-13740D01*
X-15240Y-171680D02*
Y-168680D01*
X-247880Y-1270D02*
X-244880D01*
X-246380Y-2770D02*
Y230D01*
X-255500Y-1270D02*
X-252500D01*
X-254000Y-2770D02*
Y230D01*
X-263120Y-1270D02*
X-260120D01*
X-261620Y-2770D02*
Y230D01*
X-252960Y-177800D02*
X-249960D01*
X-251460Y-179300D02*
Y-176300D01*
X-260580Y-177800D02*
X-257580D01*
X-259080Y-179300D02*
Y-176300D01*
X-268200Y-177800D02*
X-265200D01*
X-266700Y-179300D02*
Y-176300D01*
M02*
