G04*
G04 #@! TF.GenerationSoftware,Altium Limited,Altium Designer,26.5.0 (11)*
G04*
G04 Layer_Physical_Order=1*
G04 Layer_Color=255*
G04 Board_Origin=39150000|34300000*
%FSLAX44Y44*%
%MOMM*%
G71*
G04*
G04 #@! TF.SameCoordinates,F537E913-F8B3-490E-9254-C49D637AD130*
G04*
G04*
G04 #@! TF.FilePolarity,Positive*
G04*
G01*
G75*
%ADD12C,0.2540*%
%ADD15R,4.9000X5.6500*%
%ADD16R,2.6500X1.2000*%
%ADD17R,0.4000X1.1000*%
%ADD18R,4.8000X3.0900*%
%ADD19R,2.5000X2.5000*%
%ADD20C,2.5000*%
%ADD21C,0.6000*%
%ADD22C,0.5000*%
%ADD23C,0.4000*%
%ADD24C,0.3000*%
%ADD25C,0.3500*%
%ADD26C,0.3000*%
%ADD27R,3.9370X2.7940*%
%ADD28R,3.1580X1.6690*%
%ADD29R,0.5080X1.5240*%
%ADD30R,4.6990X1.9050*%
%ADD31R,0.1270X0.1270*%
%ADD32R,12.3190X3.5560*%
%ADD33R,3.1750X1.0160*%
%ADD34R,3.5560X4.6990*%
%ADD35R,3.4840X1.5240*%
%ADD36R,4.4450X3.3020*%
%ADD37R,10.2870X1.9050*%
G36*
X314960Y7620D02*
X237860D01*
Y25040D01*
X210820D01*
X183780D01*
Y7620D01*
X105410D01*
Y21590D01*
X-240750D01*
Y28470D01*
X-272330D01*
Y21590D01*
X-316430D01*
Y31750D01*
X-331470D01*
X-346510D01*
Y21590D01*
X-363220D01*
Y191770D01*
X314960D01*
Y7620D01*
D02*
G37*
G36*
X312420Y-306070D02*
Y-370840D01*
X-363220D01*
Y-205740D01*
X-349711D01*
X-347780Y-207210D01*
X-347780Y-208280D01*
Y-220980D01*
X-332740D01*
X-317700D01*
Y-208280D01*
X-317700Y-207210D01*
X-315769Y-205740D01*
X-274870D01*
Y-207540D01*
X-259080D01*
X-243290D01*
Y-205740D01*
X209550D01*
Y-176530D01*
X225330D01*
Y-178400D01*
X234410D01*
Y-176530D01*
X238030D01*
Y-178400D01*
X247110D01*
Y-176530D01*
X250730D01*
Y-178400D01*
X259810D01*
Y-176530D01*
X263430D01*
Y-178400D01*
X272510D01*
Y-176530D01*
X312420D01*
Y-306070D01*
D02*
G37*
%LPC*%
G36*
X-316430Y48060D02*
X-330200D01*
Y34290D01*
X-316430D01*
Y48060D01*
D02*
G37*
G36*
X-332740D02*
X-346510D01*
Y34290D01*
X-332740D01*
Y48060D01*
D02*
G37*
G36*
X-240750Y38280D02*
X-255270D01*
Y31010D01*
X-240750D01*
Y38280D01*
D02*
G37*
G36*
X-257810D02*
X-272330D01*
Y31010D01*
X-257810D01*
Y38280D01*
D02*
G37*
G36*
X237860Y57100D02*
X212090D01*
Y27580D01*
X237860D01*
Y57100D01*
D02*
G37*
G36*
X209550D02*
X183780D01*
Y27580D01*
X209550D01*
Y57100D01*
D02*
G37*
G36*
X288290Y29022D02*
X283210D01*
X282445Y28705D01*
X282128Y27940D01*
Y12700D01*
X282445Y11935D01*
X283210Y11618D01*
X288290D01*
X289055Y11935D01*
X289372Y12700D01*
Y27940D01*
X289055Y28705D01*
X288290Y29022D01*
D02*
G37*
G36*
X-243290Y-210080D02*
X-257810D01*
Y-217350D01*
X-243290D01*
Y-210080D01*
D02*
G37*
G36*
X-260350D02*
X-274870D01*
Y-217350D01*
X-260350D01*
Y-210080D01*
D02*
G37*
G36*
X-317700Y-223520D02*
X-331470D01*
Y-237290D01*
X-317700D01*
Y-223520D01*
D02*
G37*
G36*
X-334010D02*
X-347780D01*
Y-237290D01*
X-334010D01*
Y-223520D01*
D02*
G37*
%LPD*%
D12*
X187960Y-182662D02*
Y-170360D01*
X186472Y-184150D02*
X187960Y-182662D01*
X139700Y-184150D02*
X186472D01*
X139482Y-184368D02*
X139700Y-184150D01*
X137378Y-184368D02*
X139482D01*
X120860Y-167850D02*
X137378Y-184368D01*
X120860Y-167850D02*
Y-76628D01*
X115352Y-71120D02*
X120860Y-76628D01*
D15*
X210820Y-82190D02*
D03*
Y26310D02*
D03*
D16*
X-256540Y29740D02*
D03*
X-259080Y-208810D02*
D03*
Y-179810D02*
D03*
X-256540Y740D02*
D03*
D17*
X149860Y-124460D02*
D03*
X187960D02*
D03*
X162560D02*
D03*
X175260D02*
D03*
X269240Y-125730D02*
D03*
X243840D02*
D03*
X256540D02*
D03*
X231140D02*
D03*
Y-171630D02*
D03*
X243840D02*
D03*
X256540D02*
D03*
X269240D02*
D03*
X162560Y-170360D02*
D03*
X175260D02*
D03*
X187960D02*
D03*
X149860D02*
D03*
D18*
X168910Y-144870D02*
D03*
X250190Y-151220D02*
D03*
D19*
X-331470Y33020D02*
D03*
X-332740Y-222250D02*
D03*
D20*
X-331470Y-17780D02*
D03*
X-332740Y-171450D02*
D03*
D21*
X-54610Y30480D02*
D03*
X10160Y-212684D02*
D03*
X149860Y-172720D02*
D03*
X59690Y-170180D02*
D03*
X12700Y-36830D02*
D03*
X-15240Y-170180D02*
D03*
X-246380Y-1270D02*
D03*
X-254000D02*
D03*
X-261620D02*
D03*
X-251460Y-177800D02*
D03*
X-259080D02*
D03*
X-266700D02*
D03*
D22*
X148910Y-137410D02*
D03*
Y-157410D02*
D03*
X158910Y-147410D02*
D03*
X148910D02*
D03*
X158910Y-157410D02*
D03*
X168910D02*
D03*
Y-137410D02*
D03*
Y-144870D02*
D03*
X178910Y-137410D02*
D03*
Y-157410D02*
D03*
X188910D02*
D03*
X178910Y-147410D02*
D03*
X188910D02*
D03*
Y-137410D02*
D03*
X158910D02*
D03*
X230190Y-138680D02*
D03*
Y-158680D02*
D03*
X240190D02*
D03*
X250190D02*
D03*
X270190D02*
D03*
X260190D02*
D03*
X230190Y-148680D02*
D03*
X240190D02*
D03*
Y-138680D02*
D03*
X250190D02*
D03*
Y-151220D02*
D03*
X270190Y-148680D02*
D03*
X260190Y-138680D02*
D03*
Y-148680D02*
D03*
X270190Y-138680D02*
D03*
X16090Y-94820D02*
D03*
X27090D02*
D03*
X16090Y-83820D02*
D03*
X27090D02*
D03*
X16090Y-72820D02*
D03*
X27090D02*
D03*
D23*
X231140Y-121920D02*
D03*
D24*
X109220Y-96520D02*
D03*
X36590Y-96320D02*
D03*
X38100Y-71120D02*
D03*
X24410Y-63500D02*
D03*
X52070D02*
D03*
D25*
X36590Y-96320D02*
X109020D01*
X109220Y-96520D01*
D26*
X38100Y-71120D02*
X115352D01*
X24410Y-63500D02*
X52070D01*
D27*
X-329565Y35560D02*
D03*
D28*
X-256540Y29935D02*
D03*
D29*
X285750Y20320D02*
D03*
D30*
X169545Y-121285D02*
D03*
D31*
X268605Y-130175D02*
D03*
D32*
X207645Y-99060D02*
D03*
D33*
X253365Y-120650D02*
D03*
D34*
X255270Y-104775D02*
D03*
D35*
X-257450Y-213360D02*
D03*
D36*
X-330835Y-222250D02*
D03*
D37*
X260985Y-172085D02*
D03*
M02*
