M48
;Layer_Color=9474304
;FILE_FORMAT=4:4
METRIC,LZ
;TYPE=PLATED
T01F00S00C0.2000
T02F00S00C0.3000
T03F00S00C1.3000
%
T01
X0023019Y-0015868
X0024019
X0025019
Y-0015122
Y-0013868
X0024019
Y-0014868
X0023019
Y-0013868
X0026019
Y-0014868
Y-0015868
X0027019
Y-0014868
Y-0013868
X0018891Y-0013741
X0017891
X0016891
Y-0014487
Y-0015741
X0015891
Y-0014741
X0014891
Y-0015741
Y-0013741
X0015891
X0017891Y-0014741
Y-0015741
X0018891
Y-0014741
X0010922Y-0009652
X0003659Y-0009632
X0002709Y-0009482
X0001609
Y-0008382
X0002709
Y-0007282
X0001609
X0002441Y-000635
X000381Y-0007112
X0005207Y-000635
T02
X0023114Y-0012192
X0014986Y-0017272
X0005969Y-0017018
X-0001524
X0001016Y-00212684
X-0025146Y-001778
X-0025908
X-002667
X-0026162Y-0000127
X-00254
X-0024638
X-0005461Y0003048
X000127Y-0003683
T03
X-0033274Y-0022225
Y-0017145
X-0033147Y-0001778
Y0003302
M30
