G04*
G04 #@! TF.GenerationSoftware,Altium Limited,Altium Designer,26.5.0 (11)*
G04*
G04 Layer_Color=16711935*
G04 Board_Origin=39150000|34300000*
%FSLAX44Y44*%
%MOMM*%
G71*
G04*
G04 #@! TF.SameCoordinates,F537E913-F8B3-490E-9254-C49D637AD130*
G04*
G04*
G04 #@! TF.FilePolarity,Positive*
G04*
G01*
G75*
%ADD10C,0.1000*%
D10*
X276690Y-132180D02*
G03*
X276690Y-132180I-5000J0D01*
G01*
X152410Y-163910D02*
G03*
X152410Y-163910I-5000J0D01*
G01*
X17590Y-97820D02*
G03*
X17590Y-97820I-5000J0D01*
G01*
X133320Y-105440D02*
X288320D01*
X133320Y49560D02*
X288320D01*
X133320Y-105440D02*
Y49560D01*
X288320Y-105440D02*
Y49560D01*
X219690Y-123180D02*
X280690D01*
X219690Y-174180D02*
X280690D01*
Y-123180D01*
X219690Y-174180D02*
Y-123180D01*
X138410Y-172910D02*
X199410D01*
X138410Y-121910D02*
X199410D01*
X138410Y-172910D02*
Y-121910D01*
X199410Y-172910D02*
Y-121910D01*
X-53070Y-139910D02*
X-42070D01*
X-53070Y-134410D02*
X-42070D01*
X-53070Y-139910D02*
Y-134410D01*
X-42070Y-139910D02*
Y-134410D01*
X-55490Y-68250D02*
X-38490D01*
X-55490Y-58750D02*
X-38490D01*
X-55490Y-68250D02*
Y-58750D01*
X-38490Y-68250D02*
Y-58750D01*
X-55490Y-45390D02*
X-38490D01*
X-55490Y-35890D02*
X-38490D01*
X-55490Y-45390D02*
Y-35890D01*
X-38490Y-45390D02*
Y-35890D01*
X14910Y-171960D02*
Y-154960D01*
X5410Y-171960D02*
Y-154960D01*
Y-171960D02*
X14910D01*
X5410Y-154960D02*
X14910D01*
X19440Y-11760D02*
X36440D01*
X19440Y-21260D02*
X36440D01*
Y-11760D01*
X19440Y-21260D02*
Y-11760D01*
X11820Y-41580D02*
X28820D01*
X11820Y-32080D02*
X28820D01*
X11820Y-41580D02*
Y-32080D01*
X28820Y-41580D02*
Y-32080D01*
X54940Y-170690D02*
Y-153690D01*
X64440Y-170690D02*
Y-153690D01*
X54940D02*
X64440D01*
X54940Y-170690D02*
X64440D01*
X40310D02*
Y-153690D01*
X30810Y-170690D02*
Y-153690D01*
Y-170690D02*
X40310D01*
X30810Y-153690D02*
X40310D01*
X-53760Y-124670D02*
X-42760D01*
X-53760Y-119170D02*
X-42760D01*
X-53760Y-124670D02*
Y-119170D01*
X-42760Y-124670D02*
Y-119170D01*
X93650Y-120260D02*
Y-103260D01*
X84150Y-120260D02*
Y-103260D01*
Y-120260D02*
X93650D01*
X84150Y-103260D02*
X93650D01*
X3590Y-103820D02*
X6590Y-106820D01*
X36590D01*
X39590Y-103820D01*
Y-63820D01*
X36590Y-60820D02*
X39590Y-63820D01*
X6590Y-60820D02*
X36590D01*
X3590Y-63820D02*
X6590Y-60820D01*
X3590Y-103820D02*
Y-63820D01*
X-84700Y-106350D02*
X-67700D01*
X-84700Y-96850D02*
X-67700D01*
X-84700Y-106350D02*
Y-96850D01*
X-67700Y-106350D02*
Y-96850D01*
X-87840Y-90590D02*
Y-79590D01*
X-82340Y-90590D02*
Y-79590D01*
X-87840D02*
X-82340D01*
X-87840Y-90590D02*
X-82340D01*
X-330Y-138940D02*
Y-121940D01*
X-9830Y-138940D02*
Y-121940D01*
Y-138940D02*
X-330D01*
X-9830Y-121940D02*
X-330D01*
X-19990Y-171960D02*
Y-154960D01*
X-10490Y-171960D02*
Y-154960D01*
X-19990D02*
X-10490D01*
X-19990Y-171960D02*
X-10490D01*
X55890Y-88510D02*
Y-71510D01*
X88890Y-88510D02*
Y-71510D01*
X55890Y-88510D02*
X88890D01*
X55890Y-71510D02*
X88890D01*
X69520Y-120260D02*
Y-103260D01*
X60020Y-120260D02*
Y-103260D01*
Y-120260D02*
X69520D01*
X60020Y-103260D02*
X69520D01*
X-52490Y-98850D02*
X-41490D01*
X-52490Y-104350D02*
X-41490D01*
Y-98850D01*
X-52490Y-104350D02*
Y-98850D01*
X-55490Y-80340D02*
X-38490D01*
X-55490Y-89840D02*
X-38490D01*
Y-80340D01*
X-55490Y-89840D02*
Y-80340D01*
X-269540Y31740D02*
X-243540D01*
X-269540Y-1260D02*
X-243540D01*
Y31740D01*
X-269540Y-1260D02*
Y31740D01*
X-272080Y-210810D02*
X-246080D01*
X-272080Y-177810D02*
X-246080D01*
X-272080Y-210810D02*
Y-177810D01*
X-246080Y-210810D02*
Y-177810D01*
M02*
