G04*
G04 #@! TF.GenerationSoftware,Altium Limited,Altium Designer,26.5.0 (11)*
G04*
G04 Layer_Color=32896*
G04 Board_Origin=39150000|34300000*
%FSLAX44Y44*%
%MOMM*%
G71*
G04*
G04 #@! TF.SameCoordinates,F537E913-F8B3-490E-9254-C49D637AD130*
G04*
G04*
G04 #@! TF.FilePolarity,Positive*
G04*
G01*
G75*
G36*
X16757Y-48396D02*
X16874Y-48407D01*
X16984Y-48424D01*
X17089Y-48446D01*
X17184Y-48473D01*
X17272Y-48501D01*
X17350Y-48534D01*
X17422Y-48567D01*
X17488Y-48601D01*
X17543Y-48634D01*
X17588Y-48662D01*
X17627Y-48689D01*
X17660Y-48711D01*
X17682Y-48728D01*
X17693Y-48739D01*
X17699Y-48745D01*
X17765Y-48811D01*
X17826Y-48883D01*
X17876Y-48961D01*
X17920Y-49038D01*
X17959Y-49116D01*
X17987Y-49188D01*
X18014Y-49265D01*
X18031Y-49332D01*
X18047Y-49404D01*
X18058Y-49465D01*
X18069Y-49520D01*
X18075Y-49564D01*
X18081Y-49603D01*
Y-49658D01*
X18075Y-49763D01*
X18064Y-49863D01*
X18047Y-49957D01*
X18020Y-50046D01*
X17992Y-50129D01*
X17959Y-50206D01*
X17925Y-50278D01*
X17887Y-50339D01*
X17854Y-50400D01*
X17815Y-50450D01*
X17782Y-50494D01*
X17754Y-50528D01*
X17726Y-50555D01*
X17710Y-50577D01*
X17699Y-50588D01*
X17693Y-50594D01*
X17615Y-50655D01*
X17532Y-50710D01*
X17449Y-50760D01*
X17361Y-50805D01*
X17267Y-50838D01*
X17178Y-50865D01*
X17001Y-50910D01*
X16923Y-50926D01*
X16846Y-50937D01*
X16779Y-50943D01*
X16718Y-50948D01*
X16669Y-50954D01*
X16635D01*
X16608D01*
X16602D01*
X16480Y-50948D01*
X16364Y-50937D01*
X16253Y-50921D01*
X16154Y-50899D01*
X16059Y-50871D01*
X15971Y-50843D01*
X15893Y-50810D01*
X15821Y-50777D01*
X15761Y-50744D01*
X15705Y-50710D01*
X15661Y-50683D01*
X15622Y-50655D01*
X15589Y-50633D01*
X15567Y-50616D01*
X15556Y-50605D01*
X15550Y-50600D01*
X15484Y-50528D01*
X15428Y-50456D01*
X15378Y-50378D01*
X15334Y-50295D01*
X15301Y-50217D01*
X15268Y-50135D01*
X15223Y-49979D01*
X15212Y-49907D01*
X15201Y-49841D01*
X15190Y-49780D01*
X15185Y-49730D01*
X15179Y-49692D01*
Y-49631D01*
X15190Y-49459D01*
X15218Y-49304D01*
X15251Y-49166D01*
X15273Y-49110D01*
X15295Y-49055D01*
X15317Y-49005D01*
X15340Y-48961D01*
X15356Y-48927D01*
X15373Y-48894D01*
X15389Y-48872D01*
X15401Y-48855D01*
X15412Y-48844D01*
Y-48839D01*
X15511Y-48728D01*
X15617Y-48639D01*
X15727Y-48562D01*
X15833Y-48506D01*
X15927Y-48462D01*
X15971Y-48446D01*
X16004Y-48429D01*
X16037Y-48418D01*
X16059Y-48412D01*
X16071Y-48407D01*
X16076D01*
X16137Y-48894D01*
X16032Y-48938D01*
X15943Y-48988D01*
X15866Y-49038D01*
X15805Y-49082D01*
X15761Y-49121D01*
X15727Y-49154D01*
X15705Y-49182D01*
X15700Y-49188D01*
X15655Y-49260D01*
X15622Y-49332D01*
X15600Y-49409D01*
X15583Y-49475D01*
X15572Y-49536D01*
X15567Y-49586D01*
Y-49631D01*
X15572Y-49697D01*
X15578Y-49758D01*
X15605Y-49869D01*
X15644Y-49968D01*
X15689Y-50057D01*
X15727Y-50123D01*
X15766Y-50173D01*
X15794Y-50206D01*
X15805Y-50212D01*
Y-50217D01*
X15905Y-50295D01*
X16015Y-50356D01*
X16137Y-50400D01*
X16248Y-50434D01*
X16347Y-50450D01*
X16392Y-50461D01*
X16430Y-50467D01*
X16464D01*
X16486Y-50472D01*
X16502D01*
X16508D01*
Y-48396D01*
X16563Y-48390D01*
X16602D01*
X16624D01*
X16630D01*
X16757Y-48396D01*
D02*
G37*
G36*
X19072Y-51984D02*
X18535D01*
Y-51513D01*
X19072D01*
Y-51984D01*
D02*
G37*
G36*
X18020D02*
X15240D01*
Y-51513D01*
X18020D01*
Y-51984D01*
D02*
G37*
G36*
X19072Y-55483D02*
X18618D01*
Y-54221D01*
X15240D01*
Y-53712D01*
X18618D01*
Y-52449D01*
X19072D01*
Y-55483D01*
D02*
G37*
G36*
X15655Y-57211D02*
X15650Y-57255D01*
X15644Y-57300D01*
Y-57338D01*
X15639Y-57366D01*
Y-57421D01*
X15644Y-57493D01*
X15655Y-57543D01*
X15666Y-57571D01*
X15672Y-57582D01*
X15700Y-57621D01*
X15727Y-57643D01*
X15749Y-57660D01*
X15761Y-57665D01*
X15788Y-57671D01*
X15827Y-57676D01*
X15915Y-57682D01*
X15954Y-57687D01*
X15987D01*
X16010D01*
X16021D01*
X17654D01*
Y-57211D01*
X18020D01*
Y-57687D01*
X18989D01*
X18706Y-58158D01*
X18020D01*
Y-58507D01*
X17654D01*
Y-58158D01*
X16048D01*
X15971D01*
X15905D01*
X15844Y-58152D01*
X15783Y-58147D01*
X15733D01*
X15689Y-58141D01*
X15617Y-58130D01*
X15561Y-58119D01*
X15522Y-58114D01*
X15500Y-58102D01*
X15495D01*
X15445Y-58080D01*
X15406Y-58047D01*
X15367Y-58014D01*
X15340Y-57986D01*
X15312Y-57953D01*
X15295Y-57931D01*
X15284Y-57914D01*
X15279Y-57909D01*
X15251Y-57848D01*
X15235Y-57787D01*
X15218Y-57720D01*
X15212Y-57654D01*
X15207Y-57599D01*
X15201Y-57554D01*
Y-57510D01*
X15207Y-57388D01*
X15212Y-57327D01*
X15223Y-57272D01*
X15229Y-57222D01*
X15235Y-57183D01*
X15240Y-57161D01*
Y-57150D01*
X15655Y-57211D01*
D02*
G37*
G36*
X16757Y-58817D02*
X16874Y-58828D01*
X16984Y-58844D01*
X17089Y-58867D01*
X17184Y-58894D01*
X17272Y-58922D01*
X17350Y-58955D01*
X17422Y-58988D01*
X17488Y-59022D01*
X17543Y-59055D01*
X17588Y-59083D01*
X17627Y-59110D01*
X17660Y-59132D01*
X17682Y-59149D01*
X17693Y-59160D01*
X17699Y-59166D01*
X17765Y-59232D01*
X17826Y-59304D01*
X17876Y-59382D01*
X17920Y-59459D01*
X17959Y-59537D01*
X17987Y-59609D01*
X18014Y-59686D01*
X18031Y-59753D01*
X18047Y-59825D01*
X18058Y-59886D01*
X18069Y-59941D01*
X18075Y-59985D01*
X18081Y-60024D01*
Y-60079D01*
X18075Y-60184D01*
X18064Y-60284D01*
X18047Y-60378D01*
X18020Y-60467D01*
X17992Y-60550D01*
X17959Y-60627D01*
X17925Y-60699D01*
X17887Y-60760D01*
X17854Y-60821D01*
X17815Y-60871D01*
X17782Y-60915D01*
X17754Y-60949D01*
X17726Y-60976D01*
X17710Y-60999D01*
X17699Y-61009D01*
X17693Y-61015D01*
X17615Y-61076D01*
X17532Y-61131D01*
X17449Y-61181D01*
X17361Y-61226D01*
X17267Y-61259D01*
X17178Y-61286D01*
X17001Y-61331D01*
X16923Y-61347D01*
X16846Y-61358D01*
X16779Y-61364D01*
X16718Y-61369D01*
X16669Y-61375D01*
X16635D01*
X16608D01*
X16602D01*
X16480Y-61369D01*
X16364Y-61358D01*
X16253Y-61342D01*
X16154Y-61320D01*
X16059Y-61292D01*
X15971Y-61264D01*
X15893Y-61231D01*
X15821Y-61198D01*
X15761Y-61165D01*
X15705Y-61131D01*
X15661Y-61104D01*
X15622Y-61076D01*
X15589Y-61054D01*
X15567Y-61037D01*
X15556Y-61026D01*
X15550Y-61021D01*
X15484Y-60949D01*
X15428Y-60877D01*
X15378Y-60799D01*
X15334Y-60716D01*
X15301Y-60638D01*
X15268Y-60556D01*
X15223Y-60400D01*
X15212Y-60328D01*
X15201Y-60262D01*
X15190Y-60201D01*
X15185Y-60151D01*
X15179Y-60113D01*
Y-60052D01*
X15190Y-59880D01*
X15218Y-59725D01*
X15251Y-59587D01*
X15273Y-59531D01*
X15295Y-59476D01*
X15317Y-59426D01*
X15340Y-59382D01*
X15356Y-59348D01*
X15373Y-59315D01*
X15389Y-59293D01*
X15401Y-59276D01*
X15412Y-59265D01*
Y-59260D01*
X15511Y-59149D01*
X15617Y-59060D01*
X15727Y-58983D01*
X15833Y-58927D01*
X15927Y-58883D01*
X15971Y-58867D01*
X16004Y-58850D01*
X16037Y-58839D01*
X16059Y-58833D01*
X16071Y-58828D01*
X16076D01*
X16137Y-59315D01*
X16032Y-59359D01*
X15943Y-59409D01*
X15866Y-59459D01*
X15805Y-59503D01*
X15761Y-59542D01*
X15727Y-59575D01*
X15705Y-59603D01*
X15700Y-59609D01*
X15655Y-59681D01*
X15622Y-59753D01*
X15600Y-59830D01*
X15583Y-59897D01*
X15572Y-59957D01*
X15567Y-60007D01*
Y-60052D01*
X15572Y-60118D01*
X15578Y-60179D01*
X15605Y-60290D01*
X15644Y-60389D01*
X15689Y-60478D01*
X15727Y-60544D01*
X15766Y-60594D01*
X15794Y-60627D01*
X15805Y-60633D01*
Y-60638D01*
X15905Y-60716D01*
X16015Y-60777D01*
X16137Y-60821D01*
X16248Y-60855D01*
X16347Y-60871D01*
X16392Y-60882D01*
X16430Y-60888D01*
X16464D01*
X16486Y-60893D01*
X16502D01*
X16508D01*
Y-58817D01*
X16563Y-58811D01*
X16602D01*
X16624D01*
X16630D01*
X16757Y-58817D01*
D02*
G37*
G36*
X19072Y-62494D02*
X16059D01*
X19072Y-64503D01*
Y-65024D01*
X15240D01*
Y-64537D01*
X18247D01*
X15240Y-62532D01*
Y-62006D01*
X19072D01*
Y-62494D01*
D02*
G37*
%LPC*%
G36*
X16912Y-48889D02*
X16901D01*
X16896D01*
Y-50445D01*
X17023Y-50428D01*
X17139Y-50395D01*
X17239Y-50356D01*
X17316Y-50312D01*
X17383Y-50273D01*
X17433Y-50234D01*
X17460Y-50212D01*
X17471Y-50201D01*
X17543Y-50112D01*
X17599Y-50024D01*
X17638Y-49930D01*
X17665Y-49841D01*
X17682Y-49769D01*
X17687Y-49708D01*
X17693Y-49686D01*
Y-49653D01*
X17687Y-49586D01*
X17682Y-49525D01*
X17649Y-49409D01*
X17604Y-49309D01*
X17555Y-49226D01*
X17505Y-49160D01*
X17460Y-49110D01*
X17427Y-49082D01*
X17422Y-49071D01*
X17416D01*
X17344Y-49022D01*
X17261Y-48977D01*
X17178Y-48949D01*
X17089Y-48922D01*
X17017Y-48905D01*
X16951Y-48894D01*
X16929D01*
X16912Y-48889D01*
D02*
G37*
G36*
Y-59310D02*
X16901D01*
X16896D01*
Y-60866D01*
X17023Y-60849D01*
X17139Y-60816D01*
X17239Y-60777D01*
X17316Y-60733D01*
X17383Y-60694D01*
X17433Y-60655D01*
X17460Y-60633D01*
X17471Y-60622D01*
X17543Y-60533D01*
X17599Y-60445D01*
X17638Y-60351D01*
X17665Y-60262D01*
X17682Y-60190D01*
X17687Y-60129D01*
X17693Y-60107D01*
Y-60074D01*
X17687Y-60007D01*
X17682Y-59946D01*
X17649Y-59830D01*
X17604Y-59730D01*
X17555Y-59647D01*
X17505Y-59581D01*
X17460Y-59531D01*
X17427Y-59503D01*
X17422Y-59492D01*
X17416D01*
X17344Y-59443D01*
X17261Y-59398D01*
X17178Y-59370D01*
X17089Y-59343D01*
X17017Y-59326D01*
X16951Y-59315D01*
X16929D01*
X16912Y-59310D01*
D02*
G37*
%LPD*%
M02*
