G04*
G04 #@! TF.GenerationSoftware,Altium Limited,Altium Designer,26.5.0 (11)*
G04*
G04 Layer_Color=65535*
G04 Board_Origin=39150000|34300000*
%FSLAX44Y44*%
%MOMM*%
G71*
G04*
G04 #@! TF.SameCoordinates,F537E913-F8B3-490E-9254-C49D637AD130*
G04*
G04*
G04 #@! TF.FilePolarity,Positive*
G04*
G01*
G75*
%ADD10C,0.1000*%
%ADD11C,0.2000*%
%ADD12C,0.2540*%
%ADD13C,0.0100*%
G36*
X233455Y-109983D02*
X232641D01*
Y-104630D01*
X230774Y-109983D01*
X230015D01*
X228166Y-104537D01*
Y-109983D01*
X227353D01*
Y-103585D01*
X228619D01*
X230136Y-108125D01*
Y-108134D01*
X230145Y-108152D01*
X230154Y-108180D01*
X230173Y-108226D01*
X230210Y-108337D01*
X230256Y-108476D01*
X230302Y-108633D01*
X230357Y-108790D01*
X230404Y-108938D01*
X230441Y-109067D01*
X230450Y-109049D01*
X230459Y-109003D01*
X230487Y-108920D01*
X230524Y-108809D01*
X230570Y-108661D01*
X230635Y-108485D01*
X230700Y-108282D01*
X230783Y-108041D01*
X232318Y-103585D01*
X233455D01*
Y-109983D01*
D02*
G37*
G36*
X237467D02*
X236681D01*
Y-104981D01*
X236672Y-104990D01*
X236626Y-105027D01*
X236570Y-105083D01*
X236478Y-105147D01*
X236376Y-105231D01*
X236247Y-105323D01*
X236099Y-105425D01*
X235933Y-105527D01*
X235923D01*
X235914Y-105536D01*
X235859Y-105573D01*
X235766Y-105619D01*
X235655Y-105674D01*
X235526Y-105739D01*
X235387Y-105804D01*
X235248Y-105869D01*
X235110Y-105924D01*
Y-105166D01*
X235119D01*
X235138Y-105147D01*
X235174Y-105138D01*
X235221Y-105110D01*
X235276Y-105083D01*
X235341Y-105046D01*
X235498Y-104953D01*
X235683Y-104852D01*
X235868Y-104722D01*
X236062Y-104574D01*
X236256Y-104417D01*
X236265Y-104408D01*
X236275Y-104398D01*
X236302Y-104371D01*
X236339Y-104343D01*
X236423Y-104251D01*
X236534Y-104140D01*
X236644Y-104010D01*
X236765Y-103862D01*
X236866Y-103714D01*
X236959Y-103557D01*
X237467D01*
Y-109983D01*
D02*
G37*
G36*
X142214Y62484D02*
X141016D01*
Y70111D01*
X141002Y70096D01*
X140931Y70040D01*
X140847Y69955D01*
X140706Y69857D01*
X140551Y69730D01*
X140353Y69589D01*
X140128Y69434D01*
X139874Y69279D01*
X139860D01*
X139846Y69265D01*
X139761Y69208D01*
X139620Y69138D01*
X139451Y69053D01*
X139254Y68955D01*
X139042Y68856D01*
X138831Y68757D01*
X138619Y68673D01*
Y69829D01*
X138634D01*
X138662Y69857D01*
X138718Y69871D01*
X138789Y69913D01*
X138873Y69955D01*
X138972Y70012D01*
X139212Y70153D01*
X139494Y70308D01*
X139775Y70505D01*
X140071Y70731D01*
X140367Y70970D01*
X140382Y70985D01*
X140396Y70999D01*
X140438Y71041D01*
X140494Y71083D01*
X140621Y71224D01*
X140790Y71393D01*
X140960Y71591D01*
X141143Y71816D01*
X141298Y72042D01*
X141439Y72281D01*
X142214D01*
Y62484D01*
D02*
G37*
G36*
X131853Y63640D02*
X136660D01*
Y62484D01*
X130556D01*
Y72239D01*
X131853D01*
Y63640D01*
D02*
G37*
G36*
X144940Y-110998D02*
X143700D01*
Y-102836D01*
X140852Y-110998D01*
X139696D01*
X136876Y-102695D01*
Y-110998D01*
X135636D01*
Y-101243D01*
X137567D01*
X139879Y-108165D01*
Y-108179D01*
X139893Y-108207D01*
X139907Y-108249D01*
X139936Y-108320D01*
X139992Y-108489D01*
X140063Y-108700D01*
X140133Y-108940D01*
X140218Y-109179D01*
X140288Y-109405D01*
X140344Y-109602D01*
X140358Y-109574D01*
X140373Y-109504D01*
X140415Y-109377D01*
X140471Y-109208D01*
X140542Y-108982D01*
X140640Y-108714D01*
X140739Y-108404D01*
X140866Y-108038D01*
X143206Y-101243D01*
X144940D01*
Y-110998D01*
D02*
G37*
G36*
X150015Y-101215D02*
X150128Y-101229D01*
X150269Y-101243D01*
X150424Y-101271D01*
X150579Y-101299D01*
X150945Y-101398D01*
X151312Y-101539D01*
X151495Y-101623D01*
X151678Y-101722D01*
X151847Y-101849D01*
X152003Y-101990D01*
X152017Y-102004D01*
X152045Y-102018D01*
X152073Y-102075D01*
X152129Y-102131D01*
X152200Y-102201D01*
X152270Y-102300D01*
X152341Y-102399D01*
X152425Y-102526D01*
X152566Y-102794D01*
X152708Y-103132D01*
X152764Y-103301D01*
X152792Y-103498D01*
X152820Y-103696D01*
X152834Y-103907D01*
Y-103935D01*
Y-104006D01*
X152820Y-104119D01*
X152806Y-104274D01*
X152778Y-104443D01*
X152722Y-104640D01*
X152665Y-104852D01*
X152581Y-105063D01*
X152566Y-105091D01*
X152538Y-105162D01*
X152482Y-105275D01*
X152397Y-105430D01*
X152285Y-105599D01*
X152144Y-105810D01*
X151974Y-106022D01*
X151777Y-106261D01*
X151749Y-106290D01*
X151678Y-106374D01*
X151608Y-106445D01*
X151537Y-106515D01*
X151453Y-106600D01*
X151340Y-106713D01*
X151227Y-106825D01*
X151086Y-106952D01*
X150945Y-107093D01*
X150776Y-107248D01*
X150593Y-107403D01*
X150396Y-107586D01*
X150170Y-107770D01*
X149944Y-107967D01*
X149930Y-107981D01*
X149902Y-108009D01*
X149846Y-108052D01*
X149775Y-108108D01*
X149691Y-108193D01*
X149592Y-108277D01*
X149367Y-108461D01*
X149127Y-108672D01*
X148901Y-108883D01*
X148704Y-109067D01*
X148619Y-109137D01*
X148549Y-109208D01*
X148535Y-109222D01*
X148492Y-109264D01*
X148436Y-109320D01*
X148366Y-109405D01*
X148295Y-109504D01*
X148210Y-109602D01*
X148041Y-109842D01*
X152848D01*
Y-110998D01*
X146378D01*
Y-110984D01*
Y-110927D01*
Y-110843D01*
X146392Y-110730D01*
X146406Y-110603D01*
X146434Y-110462D01*
X146462Y-110321D01*
X146519Y-110166D01*
Y-110152D01*
X146533Y-110138D01*
X146561Y-110054D01*
X146618Y-109927D01*
X146702Y-109757D01*
X146815Y-109560D01*
X146956Y-109335D01*
X147111Y-109109D01*
X147308Y-108869D01*
Y-108855D01*
X147337Y-108841D01*
X147407Y-108757D01*
X147534Y-108630D01*
X147717Y-108446D01*
X147929Y-108235D01*
X148196Y-107981D01*
X148521Y-107699D01*
X148873Y-107403D01*
X148887Y-107389D01*
X148944Y-107347D01*
X149028Y-107276D01*
X149127Y-107192D01*
X149254Y-107079D01*
X149409Y-106952D01*
X149564Y-106811D01*
X149747Y-106656D01*
X150099Y-106318D01*
X150452Y-105979D01*
X150621Y-105810D01*
X150776Y-105641D01*
X150917Y-105486D01*
X151030Y-105331D01*
Y-105317D01*
X151058Y-105303D01*
X151086Y-105260D01*
X151115Y-105204D01*
X151213Y-105049D01*
X151326Y-104866D01*
X151425Y-104640D01*
X151523Y-104401D01*
X151580Y-104133D01*
X151608Y-103879D01*
Y-103865D01*
Y-103851D01*
X151594Y-103766D01*
X151580Y-103625D01*
X151537Y-103470D01*
X151481Y-103273D01*
X151382Y-103076D01*
X151256Y-102878D01*
X151086Y-102681D01*
X151058Y-102653D01*
X150988Y-102596D01*
X150889Y-102526D01*
X150734Y-102427D01*
X150536Y-102342D01*
X150311Y-102258D01*
X150043Y-102201D01*
X149747Y-102187D01*
X149663D01*
X149606Y-102201D01*
X149437Y-102216D01*
X149240Y-102258D01*
X149028Y-102314D01*
X148788Y-102413D01*
X148563Y-102540D01*
X148351Y-102709D01*
X148323Y-102737D01*
X148267Y-102808D01*
X148182Y-102920D01*
X148098Y-103090D01*
X147999Y-103287D01*
X147914Y-103541D01*
X147858Y-103823D01*
X147830Y-104147D01*
X146603Y-104020D01*
Y-104006D01*
X146618Y-103964D01*
Y-103893D01*
X146632Y-103794D01*
X146660Y-103682D01*
X146688Y-103555D01*
X146730Y-103400D01*
X146773Y-103245D01*
X146885Y-102906D01*
X147055Y-102568D01*
X147153Y-102399D01*
X147280Y-102230D01*
X147407Y-102075D01*
X147548Y-101934D01*
X147562Y-101919D01*
X147590Y-101905D01*
X147633Y-101863D01*
X147703Y-101821D01*
X147788Y-101764D01*
X147886Y-101708D01*
X147999Y-101638D01*
X148140Y-101567D01*
X148295Y-101497D01*
X148464Y-101426D01*
X148647Y-101370D01*
X148845Y-101313D01*
X149056Y-101271D01*
X149282Y-101229D01*
X149522Y-101215D01*
X149775Y-101201D01*
X149916D01*
X150015Y-101215D01*
D02*
G37*
G36*
X-348931Y64315D02*
Y64301D01*
Y64259D01*
Y64203D01*
Y64118D01*
X-348945Y64005D01*
Y63892D01*
X-348973Y63625D01*
X-349001Y63314D01*
X-349058Y62990D01*
X-349142Y62694D01*
X-349241Y62412D01*
Y62398D01*
X-349255Y62384D01*
X-349297Y62299D01*
X-349368Y62187D01*
X-349467Y62032D01*
X-349608Y61877D01*
X-349763Y61707D01*
X-349960Y61538D01*
X-350186Y61397D01*
X-350214Y61383D01*
X-350298Y61341D01*
X-350425Y61284D01*
X-350608Y61228D01*
X-350834Y61158D01*
X-351088Y61101D01*
X-351370Y61059D01*
X-351680Y61045D01*
X-351807D01*
X-351891Y61059D01*
X-352004Y61073D01*
X-352117Y61087D01*
X-352413Y61143D01*
X-352723Y61228D01*
X-353047Y61355D01*
X-353216Y61440D01*
X-353371Y61538D01*
X-353512Y61651D01*
X-353653Y61778D01*
X-353667Y61792D01*
X-353681Y61806D01*
X-353710Y61863D01*
X-353752Y61919D01*
X-353808Y61989D01*
X-353865Y62088D01*
X-353921Y62201D01*
X-353992Y62328D01*
X-354048Y62469D01*
X-354104Y62638D01*
X-354161Y62807D01*
X-354217Y63004D01*
X-354245Y63216D01*
X-354288Y63455D01*
X-354302Y63695D01*
Y63963D01*
X-353132Y64132D01*
Y64118D01*
Y64090D01*
Y64033D01*
X-353118Y63949D01*
X-353104Y63864D01*
Y63766D01*
X-353061Y63526D01*
X-353019Y63272D01*
X-352934Y63018D01*
X-352850Y62793D01*
X-352793Y62694D01*
X-352723Y62610D01*
X-352709Y62596D01*
X-352653Y62553D01*
X-352568Y62483D01*
X-352455Y62412D01*
X-352300Y62328D01*
X-352131Y62271D01*
X-351919Y62215D01*
X-351694Y62201D01*
X-351609D01*
X-351525Y62215D01*
X-351398Y62229D01*
X-351271Y62257D01*
X-351130Y62285D01*
X-350989Y62342D01*
X-350848Y62412D01*
X-350834Y62426D01*
X-350792Y62455D01*
X-350735Y62511D01*
X-350651Y62567D01*
X-350580Y62666D01*
X-350496Y62765D01*
X-350425Y62877D01*
X-350369Y63018D01*
Y63032D01*
X-350340Y63089D01*
X-350326Y63188D01*
X-350298Y63314D01*
X-350270Y63484D01*
X-350256Y63695D01*
X-350228Y63949D01*
Y64245D01*
Y70969D01*
X-348931D01*
Y64315D01*
D02*
G37*
G36*
X-343842Y70997D02*
X-343729Y70983D01*
X-343588Y70969D01*
X-343433Y70941D01*
X-343278Y70913D01*
X-342911Y70814D01*
X-342545Y70673D01*
X-342362Y70588D01*
X-342178Y70490D01*
X-342009Y70363D01*
X-341854Y70222D01*
X-341840Y70208D01*
X-341812Y70194D01*
X-341784Y70137D01*
X-341727Y70081D01*
X-341657Y70010D01*
X-341586Y69912D01*
X-341516Y69813D01*
X-341431Y69686D01*
X-341290Y69419D01*
X-341149Y69080D01*
X-341093Y68911D01*
X-341065Y68714D01*
X-341036Y68516D01*
X-341022Y68305D01*
Y68277D01*
Y68206D01*
X-341036Y68093D01*
X-341051Y67938D01*
X-341079Y67769D01*
X-341135Y67572D01*
X-341192Y67360D01*
X-341276Y67149D01*
X-341290Y67121D01*
X-341319Y67050D01*
X-341375Y66937D01*
X-341459Y66782D01*
X-341572Y66613D01*
X-341713Y66402D01*
X-341882Y66190D01*
X-342080Y65951D01*
X-342108Y65922D01*
X-342178Y65838D01*
X-342249Y65767D01*
X-342319Y65697D01*
X-342404Y65612D01*
X-342517Y65500D01*
X-342630Y65387D01*
X-342771Y65260D01*
X-342911Y65119D01*
X-343081Y64964D01*
X-343264Y64809D01*
X-343461Y64626D01*
X-343687Y64442D01*
X-343912Y64245D01*
X-343926Y64231D01*
X-343955Y64203D01*
X-344011Y64160D01*
X-344081Y64104D01*
X-344166Y64019D01*
X-344265Y63935D01*
X-344490Y63752D01*
X-344730Y63540D01*
X-344955Y63328D01*
X-345153Y63145D01*
X-345237Y63075D01*
X-345308Y63004D01*
X-345322Y62990D01*
X-345364Y62948D01*
X-345421Y62892D01*
X-345491Y62807D01*
X-345562Y62708D01*
X-345646Y62610D01*
X-345815Y62370D01*
X-341008D01*
Y61214D01*
X-347479D01*
Y61228D01*
Y61284D01*
Y61369D01*
X-347465Y61482D01*
X-347451Y61609D01*
X-347422Y61750D01*
X-347394Y61891D01*
X-347338Y62046D01*
Y62060D01*
X-347324Y62074D01*
X-347296Y62158D01*
X-347239Y62285D01*
X-347155Y62455D01*
X-347042Y62652D01*
X-346901Y62877D01*
X-346746Y63103D01*
X-346549Y63343D01*
Y63357D01*
X-346520Y63371D01*
X-346450Y63455D01*
X-346323Y63582D01*
X-346140Y63766D01*
X-345928Y63977D01*
X-345660Y64231D01*
X-345336Y64513D01*
X-344984Y64809D01*
X-344970Y64823D01*
X-344913Y64865D01*
X-344829Y64936D01*
X-344730Y65020D01*
X-344603Y65133D01*
X-344448Y65260D01*
X-344293Y65401D01*
X-344110Y65556D01*
X-343757Y65894D01*
X-343405Y66233D01*
X-343236Y66402D01*
X-343081Y66571D01*
X-342940Y66726D01*
X-342827Y66881D01*
Y66895D01*
X-342799Y66909D01*
X-342771Y66951D01*
X-342742Y67008D01*
X-342644Y67163D01*
X-342531Y67346D01*
X-342432Y67572D01*
X-342333Y67811D01*
X-342277Y68079D01*
X-342249Y68333D01*
Y68347D01*
Y68361D01*
X-342263Y68446D01*
X-342277Y68587D01*
X-342319Y68742D01*
X-342376Y68939D01*
X-342474Y69137D01*
X-342601Y69334D01*
X-342771Y69531D01*
X-342799Y69559D01*
X-342869Y69616D01*
X-342968Y69686D01*
X-343123Y69785D01*
X-343320Y69870D01*
X-343546Y69954D01*
X-343814Y70010D01*
X-344110Y70025D01*
X-344194D01*
X-344251Y70010D01*
X-344420Y69996D01*
X-344617Y69954D01*
X-344829Y69898D01*
X-345068Y69799D01*
X-345294Y69672D01*
X-345505Y69503D01*
X-345533Y69475D01*
X-345590Y69404D01*
X-345674Y69292D01*
X-345759Y69122D01*
X-345858Y68925D01*
X-345942Y68671D01*
X-345999Y68389D01*
X-346027Y68065D01*
X-347253Y68192D01*
Y68206D01*
X-347239Y68248D01*
Y68319D01*
X-347225Y68418D01*
X-347197Y68530D01*
X-347169Y68657D01*
X-347126Y68812D01*
X-347084Y68967D01*
X-346971Y69306D01*
X-346802Y69644D01*
X-346703Y69813D01*
X-346577Y69982D01*
X-346450Y70137D01*
X-346309Y70278D01*
X-346295Y70293D01*
X-346267Y70307D01*
X-346224Y70349D01*
X-346154Y70391D01*
X-346069Y70448D01*
X-345970Y70504D01*
X-345858Y70574D01*
X-345717Y70645D01*
X-345562Y70715D01*
X-345392Y70786D01*
X-345209Y70842D01*
X-345012Y70899D01*
X-344800Y70941D01*
X-344575Y70983D01*
X-344335Y70997D01*
X-344081Y71011D01*
X-343941D01*
X-343842Y70997D01*
D02*
G37*
G36*
X-345821Y-136333D02*
Y-136347D01*
Y-136389D01*
Y-136446D01*
Y-136530D01*
X-345835Y-136643D01*
Y-136756D01*
X-345863Y-137023D01*
X-345891Y-137334D01*
X-345947Y-137658D01*
X-346032Y-137954D01*
X-346131Y-138236D01*
Y-138250D01*
X-346145Y-138264D01*
X-346187Y-138349D01*
X-346258Y-138461D01*
X-346356Y-138617D01*
X-346497Y-138772D01*
X-346652Y-138941D01*
X-346850Y-139110D01*
X-347075Y-139251D01*
X-347103Y-139265D01*
X-347188Y-139307D01*
X-347315Y-139364D01*
X-347498Y-139420D01*
X-347724Y-139490D01*
X-347977Y-139547D01*
X-348259Y-139589D01*
X-348569Y-139603D01*
X-348696D01*
X-348781Y-139589D01*
X-348894Y-139575D01*
X-349007Y-139561D01*
X-349303Y-139505D01*
X-349613Y-139420D01*
X-349937Y-139293D01*
X-350106Y-139209D01*
X-350261Y-139110D01*
X-350402Y-138997D01*
X-350543Y-138870D01*
X-350557Y-138856D01*
X-350571Y-138842D01*
X-350600Y-138786D01*
X-350642Y-138729D01*
X-350698Y-138659D01*
X-350755Y-138560D01*
X-350811Y-138447D01*
X-350881Y-138320D01*
X-350938Y-138180D01*
X-350994Y-138010D01*
X-351051Y-137841D01*
X-351107Y-137644D01*
X-351135Y-137432D01*
X-351177Y-137193D01*
X-351192Y-136953D01*
Y-136685D01*
X-350022Y-136516D01*
Y-136530D01*
Y-136558D01*
Y-136615D01*
X-350007Y-136699D01*
X-349993Y-136784D01*
Y-136883D01*
X-349951Y-137122D01*
X-349909Y-137376D01*
X-349824Y-137630D01*
X-349740Y-137855D01*
X-349683Y-137954D01*
X-349613Y-138039D01*
X-349599Y-138053D01*
X-349542Y-138095D01*
X-349458Y-138165D01*
X-349345Y-138236D01*
X-349190Y-138320D01*
X-349021Y-138377D01*
X-348809Y-138433D01*
X-348584Y-138447D01*
X-348499D01*
X-348414Y-138433D01*
X-348288Y-138419D01*
X-348161Y-138391D01*
X-348020Y-138363D01*
X-347879Y-138306D01*
X-347738Y-138236D01*
X-347724Y-138222D01*
X-347681Y-138194D01*
X-347625Y-138137D01*
X-347541Y-138081D01*
X-347470Y-137982D01*
X-347385Y-137883D01*
X-347315Y-137771D01*
X-347258Y-137630D01*
Y-137616D01*
X-347230Y-137559D01*
X-347216Y-137460D01*
X-347188Y-137334D01*
X-347160Y-137164D01*
X-347146Y-136953D01*
X-347118Y-136699D01*
Y-136403D01*
Y-129679D01*
X-345821D01*
Y-136333D01*
D02*
G37*
G36*
X-339688Y-139434D02*
X-340887D01*
Y-131808D01*
X-340901Y-131822D01*
X-340971Y-131878D01*
X-341056Y-131963D01*
X-341197Y-132061D01*
X-341352Y-132188D01*
X-341549Y-132329D01*
X-341775Y-132484D01*
X-342029Y-132639D01*
X-342043D01*
X-342057Y-132654D01*
X-342141Y-132710D01*
X-342282Y-132780D01*
X-342451Y-132865D01*
X-342649Y-132964D01*
X-342860Y-133062D01*
X-343072Y-133161D01*
X-343283Y-133245D01*
Y-132090D01*
X-343269D01*
X-343241Y-132061D01*
X-343185Y-132047D01*
X-343114Y-132005D01*
X-343029Y-131963D01*
X-342931Y-131906D01*
X-342691Y-131765D01*
X-342409Y-131610D01*
X-342127Y-131413D01*
X-341831Y-131187D01*
X-341535Y-130948D01*
X-341521Y-130934D01*
X-341507Y-130920D01*
X-341465Y-130877D01*
X-341408Y-130835D01*
X-341281Y-130694D01*
X-341112Y-130525D01*
X-340943Y-130328D01*
X-340760Y-130102D01*
X-340605Y-129876D01*
X-340464Y-129637D01*
X-339688D01*
Y-139434D01*
D02*
G37*
G36*
X-267961Y53598D02*
X-267834Y53584D01*
X-267679Y53570D01*
X-267524Y53556D01*
X-267341Y53514D01*
X-266960Y53429D01*
X-266537Y53302D01*
X-266325Y53218D01*
X-266128Y53119D01*
X-265931Y52992D01*
X-265733Y52865D01*
X-265719Y52851D01*
X-265691Y52837D01*
X-265635Y52795D01*
X-265564Y52724D01*
X-265494Y52654D01*
X-265395Y52555D01*
X-265296Y52442D01*
X-265184Y52330D01*
X-265071Y52189D01*
X-264958Y52019D01*
X-264831Y51850D01*
X-264718Y51667D01*
X-264620Y51455D01*
X-264507Y51244D01*
X-264422Y51018D01*
X-264338Y50765D01*
X-265606Y50469D01*
Y50483D01*
X-265621Y50511D01*
X-265649Y50567D01*
X-265677Y50638D01*
X-265705Y50722D01*
X-265748Y50835D01*
X-265860Y51061D01*
X-266001Y51315D01*
X-266170Y51568D01*
X-266382Y51808D01*
X-266607Y52019D01*
X-266636Y52048D01*
X-266720Y52104D01*
X-266861Y52174D01*
X-267044Y52273D01*
X-267284Y52358D01*
X-267552Y52442D01*
X-267876Y52499D01*
X-268229Y52513D01*
X-268341D01*
X-268412Y52499D01*
X-268510D01*
X-268623Y52484D01*
X-268891Y52442D01*
X-269187Y52386D01*
X-269497Y52287D01*
X-269821Y52146D01*
X-270118Y51963D01*
X-270132D01*
X-270146Y51935D01*
X-270244Y51864D01*
X-270371Y51751D01*
X-270526Y51582D01*
X-270710Y51371D01*
X-270879Y51131D01*
X-271034Y50835D01*
X-271175Y50511D01*
Y50497D01*
X-271189Y50469D01*
X-271203Y50426D01*
X-271217Y50356D01*
X-271245Y50271D01*
X-271273Y50173D01*
X-271316Y49933D01*
X-271372Y49651D01*
X-271429Y49341D01*
X-271457Y49003D01*
X-271471Y48636D01*
Y48622D01*
Y48580D01*
Y48509D01*
Y48425D01*
X-271457Y48326D01*
Y48199D01*
X-271443Y48058D01*
X-271429Y47903D01*
X-271386Y47565D01*
X-271316Y47198D01*
X-271231Y46832D01*
X-271119Y46465D01*
Y46451D01*
X-271104Y46423D01*
X-271076Y46381D01*
X-271048Y46310D01*
X-270963Y46141D01*
X-270837Y45943D01*
X-270681Y45718D01*
X-270484Y45478D01*
X-270259Y45267D01*
X-269991Y45069D01*
X-269977D01*
X-269948Y45055D01*
X-269906Y45027D01*
X-269850Y44999D01*
X-269779Y44971D01*
X-269695Y44928D01*
X-269497Y44844D01*
X-269244Y44759D01*
X-268962Y44689D01*
X-268652Y44633D01*
X-268327Y44618D01*
X-268229D01*
X-268144Y44633D01*
X-268045D01*
X-267947Y44647D01*
X-267693Y44703D01*
X-267397Y44774D01*
X-267101Y44886D01*
X-266791Y45041D01*
X-266636Y45126D01*
X-266495Y45239D01*
X-266481Y45253D01*
X-266466Y45267D01*
X-266424Y45309D01*
X-266368Y45351D01*
X-266311Y45422D01*
X-266241Y45507D01*
X-266156Y45591D01*
X-266086Y45704D01*
X-266001Y45831D01*
X-265903Y45972D01*
X-265818Y46113D01*
X-265733Y46282D01*
X-265663Y46465D01*
X-265592Y46663D01*
X-265522Y46874D01*
X-265466Y47099D01*
X-264169Y46775D01*
Y46761D01*
X-264183Y46705D01*
X-264211Y46620D01*
X-264253Y46507D01*
X-264296Y46381D01*
X-264352Y46226D01*
X-264422Y46056D01*
X-264507Y45873D01*
X-264704Y45478D01*
X-264958Y45084D01*
X-265113Y44886D01*
X-265268Y44689D01*
X-265437Y44520D01*
X-265635Y44351D01*
X-265649Y44337D01*
X-265677Y44308D01*
X-265748Y44280D01*
X-265818Y44224D01*
X-265931Y44153D01*
X-266043Y44083D01*
X-266199Y44012D01*
X-266354Y43942D01*
X-266537Y43857D01*
X-266734Y43787D01*
X-266946Y43716D01*
X-267171Y43646D01*
X-267411Y43589D01*
X-267665Y43561D01*
X-267932Y43533D01*
X-268214Y43519D01*
X-268370D01*
X-268482Y43533D01*
X-268609D01*
X-268764Y43547D01*
X-268933Y43575D01*
X-269131Y43603D01*
X-269540Y43674D01*
X-269963Y43787D01*
X-270385Y43942D01*
X-270583Y44040D01*
X-270780Y44153D01*
X-270794Y44167D01*
X-270822Y44181D01*
X-270879Y44224D01*
X-270935Y44280D01*
X-271020Y44337D01*
X-271119Y44421D01*
X-271231Y44520D01*
X-271344Y44633D01*
X-271457Y44759D01*
X-271584Y44886D01*
X-271837Y45210D01*
X-272077Y45591D01*
X-272288Y46014D01*
Y46028D01*
X-272317Y46070D01*
X-272331Y46141D01*
X-272373Y46226D01*
X-272401Y46338D01*
X-272444Y46479D01*
X-272500Y46634D01*
X-272542Y46803D01*
X-272584Y46987D01*
X-272641Y47198D01*
X-272711Y47635D01*
X-272768Y48129D01*
X-272796Y48636D01*
Y48650D01*
Y48706D01*
Y48791D01*
X-272782Y48890D01*
Y49031D01*
X-272768Y49172D01*
X-272754Y49355D01*
X-272726Y49538D01*
X-272655Y49947D01*
X-272556Y50398D01*
X-272415Y50849D01*
X-272218Y51286D01*
X-272204Y51300D01*
X-272190Y51343D01*
X-272162Y51399D01*
X-272105Y51469D01*
X-272049Y51568D01*
X-271978Y51681D01*
X-271795Y51935D01*
X-271556Y52217D01*
X-271273Y52499D01*
X-270949Y52781D01*
X-270569Y53020D01*
X-270555Y53034D01*
X-270512Y53048D01*
X-270456Y53077D01*
X-270385Y53119D01*
X-270273Y53161D01*
X-270160Y53204D01*
X-270019Y53260D01*
X-269864Y53316D01*
X-269695Y53373D01*
X-269511Y53429D01*
X-269117Y53514D01*
X-268666Y53584D01*
X-268200Y53612D01*
X-268059D01*
X-267961Y53598D01*
D02*
G37*
G36*
X-258558Y43688D02*
X-259756D01*
Y51315D01*
X-259770Y51300D01*
X-259841Y51244D01*
X-259925Y51159D01*
X-260066Y51061D01*
X-260222Y50934D01*
X-260419Y50793D01*
X-260644Y50638D01*
X-260898Y50483D01*
X-260912D01*
X-260926Y50469D01*
X-261011Y50412D01*
X-261152Y50342D01*
X-261321Y50257D01*
X-261518Y50159D01*
X-261730Y50060D01*
X-261941Y49961D01*
X-262153Y49877D01*
Y51033D01*
X-262139D01*
X-262111Y51061D01*
X-262054Y51075D01*
X-261984Y51117D01*
X-261899Y51159D01*
X-261800Y51216D01*
X-261561Y51357D01*
X-261279Y51512D01*
X-260997Y51709D01*
X-260701Y51935D01*
X-260405Y52174D01*
X-260391Y52189D01*
X-260376Y52203D01*
X-260334Y52245D01*
X-260278Y52287D01*
X-260151Y52428D01*
X-259982Y52597D01*
X-259813Y52795D01*
X-259629Y53020D01*
X-259474Y53246D01*
X-259333Y53485D01*
X-258558D01*
Y43688D01*
D02*
G37*
G36*
X-252017Y53471D02*
X-251834Y53443D01*
X-251622Y53401D01*
X-251397Y53344D01*
X-251157Y53274D01*
X-250932Y53161D01*
X-250917D01*
X-250903Y53147D01*
X-250833Y53105D01*
X-250720Y53034D01*
X-250579Y52936D01*
X-250424Y52795D01*
X-250255Y52640D01*
X-250100Y52456D01*
X-249945Y52245D01*
X-249931Y52217D01*
X-249874Y52146D01*
X-249818Y52019D01*
X-249719Y51836D01*
X-249635Y51625D01*
X-249522Y51385D01*
X-249423Y51103D01*
X-249339Y50793D01*
Y50779D01*
X-249324Y50751D01*
X-249310Y50708D01*
X-249296Y50638D01*
X-249282Y50553D01*
X-249268Y50455D01*
X-249240Y50328D01*
X-249226Y50187D01*
X-249198Y50032D01*
X-249184Y49862D01*
X-249169Y49665D01*
X-249141Y49468D01*
X-249127Y49242D01*
Y49017D01*
X-249113Y48763D01*
Y48495D01*
Y48481D01*
Y48425D01*
Y48326D01*
Y48213D01*
X-249127Y48058D01*
Y47889D01*
X-249141Y47706D01*
X-249155Y47508D01*
X-249198Y47057D01*
X-249268Y46592D01*
X-249353Y46141D01*
X-249409Y45929D01*
X-249480Y45718D01*
Y45704D01*
X-249494Y45676D01*
X-249522Y45619D01*
X-249550Y45549D01*
X-249578Y45450D01*
X-249635Y45351D01*
X-249747Y45112D01*
X-249888Y44858D01*
X-250072Y44576D01*
X-250283Y44322D01*
X-250537Y44083D01*
X-250551D01*
X-250565Y44054D01*
X-250607Y44026D01*
X-250664Y43998D01*
X-250734Y43956D01*
X-250805Y43899D01*
X-251016Y43801D01*
X-251270Y43702D01*
X-251566Y43603D01*
X-251918Y43547D01*
X-252299Y43519D01*
X-252440D01*
X-252539Y43533D01*
X-252651Y43547D01*
X-252792Y43575D01*
X-252947Y43603D01*
X-253117Y43646D01*
X-253286Y43702D01*
X-253469Y43759D01*
X-253652Y43843D01*
X-253836Y43942D01*
X-254019Y44054D01*
X-254202Y44195D01*
X-254371Y44351D01*
X-254526Y44520D01*
X-254540Y44534D01*
X-254569Y44576D01*
X-254611Y44647D01*
X-254681Y44759D01*
X-254752Y44886D01*
X-254822Y45055D01*
X-254921Y45253D01*
X-255006Y45478D01*
X-255090Y45732D01*
X-255175Y46028D01*
X-255259Y46352D01*
X-255330Y46719D01*
X-255400Y47114D01*
X-255443Y47537D01*
X-255471Y48002D01*
X-255485Y48495D01*
Y48509D01*
Y48566D01*
Y48664D01*
Y48777D01*
X-255471Y48932D01*
Y49101D01*
X-255457Y49285D01*
X-255443Y49496D01*
X-255400Y49933D01*
X-255330Y50398D01*
X-255245Y50863D01*
X-255189Y51075D01*
X-255133Y51286D01*
Y51300D01*
X-255118Y51329D01*
X-255090Y51385D01*
X-255062Y51455D01*
X-255034Y51554D01*
X-254977Y51653D01*
X-254865Y51892D01*
X-254724Y52146D01*
X-254540Y52414D01*
X-254329Y52682D01*
X-254075Y52907D01*
X-254061D01*
X-254047Y52936D01*
X-254005Y52964D01*
X-253948Y52992D01*
X-253878Y53048D01*
X-253793Y53091D01*
X-253582Y53204D01*
X-253328Y53302D01*
X-253032Y53401D01*
X-252680Y53457D01*
X-252299Y53485D01*
X-252172D01*
X-252017Y53471D01*
D02*
G37*
G36*
X-270501Y-155952D02*
X-270374Y-155966D01*
X-270219Y-155980D01*
X-270064Y-155994D01*
X-269881Y-156036D01*
X-269500Y-156121D01*
X-269077Y-156248D01*
X-268866Y-156332D01*
X-268668Y-156431D01*
X-268471Y-156558D01*
X-268273Y-156685D01*
X-268259Y-156699D01*
X-268231Y-156713D01*
X-268175Y-156755D01*
X-268104Y-156826D01*
X-268034Y-156896D01*
X-267935Y-156995D01*
X-267836Y-157108D01*
X-267724Y-157220D01*
X-267611Y-157361D01*
X-267498Y-157531D01*
X-267371Y-157700D01*
X-267258Y-157883D01*
X-267160Y-158095D01*
X-267047Y-158306D01*
X-266962Y-158532D01*
X-266878Y-158785D01*
X-268146Y-159081D01*
Y-159067D01*
X-268161Y-159039D01*
X-268189Y-158983D01*
X-268217Y-158912D01*
X-268245Y-158828D01*
X-268288Y-158715D01*
X-268400Y-158489D01*
X-268541Y-158236D01*
X-268710Y-157982D01*
X-268922Y-157742D01*
X-269147Y-157531D01*
X-269176Y-157502D01*
X-269260Y-157446D01*
X-269401Y-157376D01*
X-269584Y-157277D01*
X-269824Y-157192D01*
X-270092Y-157108D01*
X-270416Y-157051D01*
X-270769Y-157037D01*
X-270881D01*
X-270952Y-157051D01*
X-271050D01*
X-271163Y-157065D01*
X-271431Y-157108D01*
X-271727Y-157164D01*
X-272037Y-157263D01*
X-272362Y-157404D01*
X-272658Y-157587D01*
X-272672D01*
X-272686Y-157615D01*
X-272784Y-157686D01*
X-272911Y-157799D01*
X-273066Y-157968D01*
X-273250Y-158179D01*
X-273419Y-158419D01*
X-273574Y-158715D01*
X-273715Y-159039D01*
Y-159053D01*
X-273729Y-159081D01*
X-273743Y-159124D01*
X-273757Y-159194D01*
X-273785Y-159279D01*
X-273813Y-159377D01*
X-273856Y-159617D01*
X-273912Y-159899D01*
X-273969Y-160209D01*
X-273997Y-160547D01*
X-274011Y-160914D01*
Y-160928D01*
Y-160970D01*
Y-161041D01*
Y-161125D01*
X-273997Y-161224D01*
Y-161351D01*
X-273983Y-161492D01*
X-273969Y-161647D01*
X-273926Y-161985D01*
X-273856Y-162352D01*
X-273771Y-162718D01*
X-273659Y-163085D01*
Y-163099D01*
X-273644Y-163127D01*
X-273616Y-163169D01*
X-273588Y-163240D01*
X-273503Y-163409D01*
X-273377Y-163606D01*
X-273221Y-163832D01*
X-273024Y-164072D01*
X-272799Y-164283D01*
X-272531Y-164480D01*
X-272517D01*
X-272488Y-164495D01*
X-272446Y-164523D01*
X-272390Y-164551D01*
X-272319Y-164579D01*
X-272235Y-164622D01*
X-272037Y-164706D01*
X-271784Y-164791D01*
X-271502Y-164861D01*
X-271192Y-164918D01*
X-270867Y-164932D01*
X-270769D01*
X-270684Y-164918D01*
X-270585D01*
X-270487Y-164903D01*
X-270233Y-164847D01*
X-269937Y-164776D01*
X-269641Y-164664D01*
X-269331Y-164509D01*
X-269176Y-164424D01*
X-269035Y-164311D01*
X-269021Y-164297D01*
X-269006Y-164283D01*
X-268964Y-164241D01*
X-268908Y-164199D01*
X-268851Y-164128D01*
X-268781Y-164044D01*
X-268696Y-163959D01*
X-268626Y-163846D01*
X-268541Y-163719D01*
X-268443Y-163578D01*
X-268358Y-163437D01*
X-268273Y-163268D01*
X-268203Y-163085D01*
X-268132Y-162887D01*
X-268062Y-162676D01*
X-268006Y-162451D01*
X-266709Y-162775D01*
Y-162789D01*
X-266723Y-162845D01*
X-266751Y-162930D01*
X-266793Y-163043D01*
X-266835Y-163169D01*
X-266892Y-163325D01*
X-266962Y-163494D01*
X-267047Y-163677D01*
X-267244Y-164072D01*
X-267498Y-164466D01*
X-267653Y-164664D01*
X-267808Y-164861D01*
X-267977Y-165030D01*
X-268175Y-165199D01*
X-268189Y-165214D01*
X-268217Y-165242D01*
X-268288Y-165270D01*
X-268358Y-165326D01*
X-268471Y-165397D01*
X-268584Y-165467D01*
X-268739Y-165538D01*
X-268894Y-165608D01*
X-269077Y-165693D01*
X-269274Y-165763D01*
X-269486Y-165834D01*
X-269711Y-165904D01*
X-269951Y-165961D01*
X-270205Y-165989D01*
X-270473Y-166017D01*
X-270755Y-166031D01*
X-270910D01*
X-271022Y-166017D01*
X-271149D01*
X-271304Y-166003D01*
X-271473Y-165975D01*
X-271671Y-165947D01*
X-272080Y-165876D01*
X-272502Y-165763D01*
X-272925Y-165608D01*
X-273123Y-165510D01*
X-273320Y-165397D01*
X-273334Y-165383D01*
X-273362Y-165369D01*
X-273419Y-165326D01*
X-273475Y-165270D01*
X-273560Y-165214D01*
X-273659Y-165129D01*
X-273771Y-165030D01*
X-273884Y-164918D01*
X-273997Y-164791D01*
X-274124Y-164664D01*
X-274377Y-164340D01*
X-274617Y-163959D01*
X-274828Y-163536D01*
Y-163522D01*
X-274857Y-163480D01*
X-274871Y-163409D01*
X-274913Y-163325D01*
X-274941Y-163212D01*
X-274984Y-163071D01*
X-275040Y-162916D01*
X-275082Y-162747D01*
X-275124Y-162563D01*
X-275181Y-162352D01*
X-275251Y-161915D01*
X-275308Y-161421D01*
X-275336Y-160914D01*
Y-160900D01*
Y-160844D01*
Y-160759D01*
X-275322Y-160660D01*
Y-160519D01*
X-275308Y-160378D01*
X-275294Y-160195D01*
X-275266Y-160012D01*
X-275195Y-159603D01*
X-275096Y-159152D01*
X-274955Y-158701D01*
X-274758Y-158264D01*
X-274744Y-158250D01*
X-274730Y-158207D01*
X-274702Y-158151D01*
X-274645Y-158081D01*
X-274589Y-157982D01*
X-274518Y-157869D01*
X-274335Y-157615D01*
X-274095Y-157333D01*
X-273813Y-157051D01*
X-273489Y-156769D01*
X-273109Y-156530D01*
X-273095Y-156516D01*
X-273052Y-156502D01*
X-272996Y-156473D01*
X-272925Y-156431D01*
X-272813Y-156389D01*
X-272700Y-156347D01*
X-272559Y-156290D01*
X-272404Y-156234D01*
X-272235Y-156177D01*
X-272051Y-156121D01*
X-271657Y-156036D01*
X-271206Y-155966D01*
X-270740Y-155938D01*
X-270599D01*
X-270501Y-155952D01*
D02*
G37*
G36*
X-262381Y-156079D02*
X-262310D01*
X-262212Y-156093D01*
X-261972Y-156135D01*
X-261704Y-156192D01*
X-261408Y-156290D01*
X-261112Y-156417D01*
X-260816Y-156586D01*
X-260802D01*
X-260788Y-156614D01*
X-260746Y-156643D01*
X-260689Y-156685D01*
X-260548Y-156798D01*
X-260365Y-156953D01*
X-260182Y-157164D01*
X-259970Y-157418D01*
X-259787Y-157714D01*
X-259618Y-158052D01*
Y-158066D01*
X-259604Y-158095D01*
X-259576Y-158151D01*
X-259547Y-158221D01*
X-259519Y-158320D01*
X-259477Y-158447D01*
X-259449Y-158588D01*
X-259406Y-158743D01*
X-259364Y-158926D01*
X-259322Y-159138D01*
X-259294Y-159363D01*
X-259265Y-159603D01*
X-259237Y-159871D01*
X-259209Y-160153D01*
X-259195Y-160463D01*
Y-160787D01*
Y-160801D01*
Y-160872D01*
Y-160970D01*
Y-161097D01*
X-259209Y-161252D01*
Y-161436D01*
X-259223Y-161647D01*
X-259251Y-161859D01*
X-259294Y-162338D01*
X-259364Y-162845D01*
X-259463Y-163325D01*
X-259533Y-163564D01*
X-259604Y-163776D01*
Y-163790D01*
X-259618Y-163818D01*
X-259646Y-163874D01*
X-259674Y-163959D01*
X-259716Y-164044D01*
X-259773Y-164156D01*
X-259914Y-164396D01*
X-260083Y-164664D01*
X-260280Y-164946D01*
X-260534Y-165214D01*
X-260816Y-165453D01*
X-260830D01*
X-260858Y-165481D01*
X-260901Y-165510D01*
X-260957Y-165538D01*
X-261042Y-165580D01*
X-261126Y-165636D01*
X-261239Y-165693D01*
X-261352Y-165735D01*
X-261620Y-165848D01*
X-261944Y-165947D01*
X-262296Y-166003D01*
X-262691Y-166031D01*
X-262804D01*
X-262874Y-166017D01*
X-262973D01*
X-263086Y-166003D01*
X-263354Y-165947D01*
X-263650Y-165876D01*
X-263960Y-165763D01*
X-264270Y-165608D01*
X-264425Y-165510D01*
X-264566Y-165397D01*
X-264580Y-165383D01*
X-264594Y-165369D01*
X-264636Y-165326D01*
X-264679Y-165284D01*
X-264735Y-165214D01*
X-264806Y-165129D01*
X-264946Y-164932D01*
X-265088Y-164678D01*
X-265229Y-164368D01*
X-265341Y-164015D01*
X-265426Y-163606D01*
X-264270Y-163508D01*
Y-163522D01*
X-264256Y-163550D01*
Y-163578D01*
X-264242Y-163635D01*
X-264199Y-163790D01*
X-264143Y-163959D01*
X-264072Y-164156D01*
X-263974Y-164354D01*
X-263861Y-164537D01*
X-263720Y-164692D01*
X-263706Y-164706D01*
X-263650Y-164748D01*
X-263551Y-164805D01*
X-263438Y-164861D01*
X-263283Y-164932D01*
X-263100Y-164988D01*
X-262888Y-165030D01*
X-262663Y-165044D01*
X-262564D01*
X-262465Y-165030D01*
X-262339Y-165016D01*
X-262183Y-164988D01*
X-262028Y-164946D01*
X-261859Y-164889D01*
X-261704Y-164805D01*
X-261690Y-164791D01*
X-261634Y-164762D01*
X-261549Y-164706D01*
X-261465Y-164622D01*
X-261352Y-164523D01*
X-261239Y-164410D01*
X-261126Y-164283D01*
X-261013Y-164128D01*
X-260999Y-164114D01*
X-260971Y-164044D01*
X-260915Y-163945D01*
X-260858Y-163818D01*
X-260788Y-163649D01*
X-260717Y-163451D01*
X-260647Y-163226D01*
X-260576Y-162972D01*
Y-162958D01*
X-260562Y-162944D01*
Y-162902D01*
X-260548Y-162845D01*
X-260520Y-162704D01*
X-260478Y-162521D01*
X-260450Y-162295D01*
X-260421Y-162056D01*
X-260407Y-161788D01*
X-260393Y-161506D01*
Y-161492D01*
Y-161450D01*
Y-161379D01*
Y-161266D01*
X-260407Y-161295D01*
X-260464Y-161365D01*
X-260548Y-161464D01*
X-260647Y-161605D01*
X-260788Y-161746D01*
X-260957Y-161901D01*
X-261154Y-162056D01*
X-261380Y-162197D01*
X-261408Y-162211D01*
X-261493Y-162253D01*
X-261620Y-162310D01*
X-261775Y-162366D01*
X-261986Y-162436D01*
X-262212Y-162493D01*
X-262465Y-162535D01*
X-262733Y-162549D01*
X-262846D01*
X-262931Y-162535D01*
X-263043Y-162521D01*
X-263156Y-162507D01*
X-263297Y-162479D01*
X-263438Y-162436D01*
X-263762Y-162338D01*
X-263932Y-162267D01*
X-264101Y-162183D01*
X-264284Y-162084D01*
X-264453Y-161957D01*
X-264622Y-161830D01*
X-264777Y-161675D01*
X-264791Y-161661D01*
X-264820Y-161633D01*
X-264848Y-161591D01*
X-264904Y-161520D01*
X-264975Y-161421D01*
X-265045Y-161323D01*
X-265116Y-161196D01*
X-265186Y-161055D01*
X-265271Y-160900D01*
X-265341Y-160731D01*
X-265412Y-160533D01*
X-265482Y-160336D01*
X-265539Y-160110D01*
X-265567Y-159871D01*
X-265595Y-159631D01*
X-265609Y-159363D01*
Y-159349D01*
Y-159293D01*
Y-159222D01*
X-265595Y-159124D01*
X-265581Y-158997D01*
X-265567Y-158842D01*
X-265539Y-158687D01*
X-265496Y-158503D01*
X-265398Y-158137D01*
X-265327Y-157940D01*
X-265243Y-157728D01*
X-265144Y-157531D01*
X-265017Y-157347D01*
X-264890Y-157150D01*
X-264735Y-156981D01*
X-264721Y-156967D01*
X-264693Y-156939D01*
X-264650Y-156896D01*
X-264580Y-156840D01*
X-264495Y-156769D01*
X-264383Y-156685D01*
X-264270Y-156614D01*
X-264129Y-156516D01*
X-263988Y-156431D01*
X-263819Y-156361D01*
X-263438Y-156206D01*
X-263241Y-156149D01*
X-263015Y-156107D01*
X-262790Y-156079D01*
X-262550Y-156065D01*
X-262451D01*
X-262381Y-156079D01*
D02*
G37*
%LPC*%
G36*
X-252313Y52499D02*
X-252398D01*
X-252454Y52484D01*
X-252609Y52456D01*
X-252792Y52414D01*
X-253004Y52330D01*
X-253229Y52203D01*
X-253342Y52118D01*
X-253455Y52033D01*
X-253554Y51921D01*
X-253652Y51794D01*
Y51780D01*
X-253680Y51751D01*
X-253709Y51695D01*
X-253751Y51625D01*
X-253793Y51512D01*
X-253850Y51385D01*
X-253892Y51230D01*
X-253948Y51047D01*
X-254005Y50835D01*
X-254061Y50595D01*
X-254118Y50328D01*
X-254160Y50032D01*
X-254202Y49693D01*
X-254230Y49327D01*
X-254244Y48932D01*
X-254258Y48495D01*
Y48467D01*
Y48396D01*
Y48270D01*
X-254244Y48100D01*
Y47917D01*
X-254230Y47691D01*
X-254216Y47452D01*
X-254188Y47198D01*
X-254118Y46648D01*
X-254075Y46381D01*
X-254019Y46127D01*
X-253962Y45887D01*
X-253878Y45662D01*
X-253793Y45464D01*
X-253695Y45295D01*
Y45281D01*
X-253666Y45267D01*
X-253596Y45168D01*
X-253469Y45041D01*
X-253314Y44900D01*
X-253102Y44759D01*
X-252863Y44633D01*
X-252595Y44534D01*
X-252454Y44520D01*
X-252299Y44506D01*
X-252214D01*
X-252158Y44520D01*
X-252017Y44548D01*
X-251820Y44604D01*
X-251608Y44703D01*
X-251369Y44844D01*
X-251256Y44928D01*
X-251143Y45041D01*
X-251030Y45154D01*
X-250917Y45295D01*
Y45309D01*
X-250889Y45337D01*
X-250861Y45380D01*
X-250833Y45450D01*
X-250777Y45549D01*
X-250734Y45676D01*
X-250678Y45817D01*
X-250621Y45986D01*
X-250579Y46197D01*
X-250523Y46423D01*
X-250466Y46691D01*
X-250424Y46973D01*
X-250396Y47311D01*
X-250368Y47663D01*
X-250340Y48058D01*
Y48495D01*
Y48509D01*
Y48523D01*
Y48594D01*
Y48721D01*
X-250354Y48890D01*
Y49073D01*
X-250368Y49299D01*
X-250382Y49538D01*
X-250410Y49806D01*
X-250480Y50342D01*
X-250523Y50610D01*
X-250579Y50863D01*
X-250636Y51103D01*
X-250720Y51329D01*
X-250805Y51526D01*
X-250903Y51695D01*
Y51709D01*
X-250932Y51723D01*
X-250960Y51766D01*
X-251002Y51822D01*
X-251129Y51949D01*
X-251284Y52104D01*
X-251495Y52245D01*
X-251735Y52372D01*
X-251862Y52428D01*
X-252003Y52470D01*
X-252158Y52484D01*
X-252313Y52499D01*
D02*
G37*
G36*
X-262254Y-157051D02*
X-262479D01*
X-262536Y-157065D01*
X-262691Y-157080D01*
X-262874Y-157136D01*
X-263100Y-157206D01*
X-263340Y-157333D01*
X-263579Y-157488D01*
X-263692Y-157601D01*
X-263805Y-157714D01*
Y-157728D01*
X-263833Y-157742D01*
X-263861Y-157784D01*
X-263889Y-157827D01*
X-263988Y-157968D01*
X-264087Y-158165D01*
X-264199Y-158405D01*
X-264298Y-158701D01*
X-264354Y-159039D01*
X-264383Y-159406D01*
Y-159420D01*
Y-159448D01*
Y-159490D01*
X-264368Y-159561D01*
Y-159645D01*
X-264354Y-159730D01*
X-264312Y-159941D01*
X-264242Y-160181D01*
X-264157Y-160435D01*
X-264016Y-160688D01*
X-263833Y-160914D01*
X-263805Y-160942D01*
X-263734Y-160998D01*
X-263607Y-161097D01*
X-263452Y-161196D01*
X-263241Y-161309D01*
X-263001Y-161407D01*
X-262733Y-161464D01*
X-262437Y-161492D01*
X-262353D01*
X-262296Y-161478D01*
X-262141Y-161464D01*
X-261958Y-161421D01*
X-261732Y-161351D01*
X-261507Y-161252D01*
X-261281Y-161111D01*
X-261070Y-160914D01*
X-261042Y-160886D01*
X-260985Y-160801D01*
X-260901Y-160674D01*
X-260788Y-160491D01*
X-260689Y-160266D01*
X-260605Y-159998D01*
X-260548Y-159673D01*
X-260520Y-159307D01*
Y-159293D01*
Y-159265D01*
Y-159208D01*
X-260534Y-159138D01*
Y-159039D01*
X-260548Y-158940D01*
X-260590Y-158715D01*
X-260647Y-158447D01*
X-260746Y-158165D01*
X-260887Y-157897D01*
X-261070Y-157657D01*
Y-157643D01*
X-261098Y-157629D01*
X-261168Y-157559D01*
X-261281Y-157460D01*
X-261436Y-157347D01*
X-261634Y-157249D01*
X-261859Y-157150D01*
X-262113Y-157080D01*
X-262254Y-157051D01*
D02*
G37*
%LPD*%
D10*
X282690Y-117680D02*
G03*
X282690Y-117680I-500J0D01*
G01*
X137410Y-178410D02*
G03*
X137410Y-178410I-500J0D01*
G01*
D11*
X133320Y-105440D02*
Y49560D01*
X288320Y-105440D02*
Y49560D01*
X133320Y-105440D02*
X182320D01*
X133320Y49560D02*
X182320D01*
X239320Y-105440D02*
X288320D01*
X239320Y49560D02*
X288320D01*
X275240Y-121680D02*
X282190D01*
X218190D02*
X225140D01*
X275240Y-175680D02*
X282190D01*
X218190D02*
X225140D01*
X282190Y-130230D02*
Y-121680D01*
Y-175680D02*
Y-167130D01*
X218190Y-130230D02*
Y-121680D01*
Y-175680D02*
Y-167130D01*
X136910Y-174410D02*
X143860D01*
X193960D02*
X200910D01*
X136910Y-120410D02*
X143860D01*
X193960D02*
X200910D01*
X136910Y-174410D02*
Y-165860D01*
Y-128960D02*
Y-120410D01*
X200910Y-174410D02*
Y-165860D01*
Y-128960D02*
Y-120410D01*
X-244290Y10740D02*
Y19740D01*
X-268790Y10740D02*
Y19740D01*
X-271330Y-198810D02*
Y-189810D01*
X-246830Y-198810D02*
Y-189810D01*
D12*
X-356870Y-243840D02*
Y-151130D01*
X-320040D01*
X-311150D01*
Y-243840D02*
Y-151130D01*
X-356870Y-243840D02*
X-311150D01*
X-353060Y54610D02*
X-307340D01*
X-353060Y-38100D02*
Y54610D01*
Y-38100D02*
X-344170D01*
X-307340D01*
Y54610D01*
X-356555Y-387117D02*
X-358222Y-385451D01*
X-361554D01*
X-363220Y-387117D01*
Y-388783D01*
X-361554Y-390449D01*
X-358222D01*
X-356555Y-392116D01*
Y-393782D01*
X-358222Y-395448D01*
X-361554D01*
X-363220Y-393782D01*
X-353223Y-388783D02*
Y-393782D01*
X-351557Y-395448D01*
X-346559D01*
Y-388783D01*
X-343226Y-395448D02*
X-339894D01*
X-341560D01*
Y-385451D01*
X-343226D01*
X-329897Y-395448D02*
X-333230D01*
X-334896Y-393782D01*
Y-390449D01*
X-333230Y-388783D01*
X-329897D01*
X-328231Y-390449D01*
Y-392116D01*
X-334896D01*
X-324899Y-388783D02*
Y-393782D01*
X-323233Y-395448D01*
X-318235D01*
Y-397114D01*
X-319901Y-398780D01*
X-321567D01*
X-318235Y-395448D02*
Y-388783D01*
X-314902Y-395448D02*
Y-388783D01*
X-313236D01*
X-311570Y-390449D01*
Y-395448D01*
Y-390449D01*
X-309904Y-388783D01*
X-308238Y-390449D01*
Y-395448D01*
X-303239Y-388783D02*
X-299907D01*
X-298241Y-390449D01*
Y-395448D01*
X-303239D01*
X-304905Y-393782D01*
X-303239Y-392116D01*
X-298241D01*
X-294909Y-395448D02*
Y-388783D01*
X-289910D01*
X-288244Y-390449D01*
Y-395448D01*
X-274915Y-385451D02*
X-268251D01*
Y-387117D01*
X-274915Y-393782D01*
Y-395448D01*
X-268251D01*
X-263252D02*
X-259920D01*
X-258254Y-393782D01*
Y-390449D01*
X-259920Y-388783D01*
X-263252D01*
X-264918Y-390449D01*
Y-393782D01*
X-263252Y-395448D01*
X-254922Y-388783D02*
Y-395448D01*
Y-392116D01*
X-253255Y-390449D01*
X-251589Y-388783D01*
X-249923D01*
X-244925Y-395448D02*
X-241593D01*
X-243259D01*
Y-385451D01*
X-244925D01*
X-236594Y-388783D02*
Y-393782D01*
X-234928Y-395448D01*
X-229930D01*
Y-388783D01*
X-209936Y-395448D02*
X-216601D01*
X-209936Y-388783D01*
Y-387117D01*
X-211602Y-385451D01*
X-214934D01*
X-216601Y-387117D01*
X-206604D02*
X-204938Y-385451D01*
X-201605D01*
X-199939Y-387117D01*
Y-388783D01*
X-201605Y-390449D01*
X-203272D01*
X-201605D01*
X-199939Y-392116D01*
Y-393782D01*
X-201605Y-395448D01*
X-204938D01*
X-206604Y-393782D01*
X-196607Y-395448D02*
X-193275D01*
X-194941D01*
Y-385451D01*
X-196607Y-387117D01*
X-188276D02*
X-186610Y-385451D01*
X-183278D01*
X-181612Y-387117D01*
Y-393782D01*
X-183278Y-395448D01*
X-186610D01*
X-188276Y-393782D01*
Y-387117D01*
X-178280D02*
X-176614Y-385451D01*
X-173281D01*
X-171615Y-387117D01*
Y-393782D01*
X-173281Y-395448D01*
X-176614D01*
X-178280Y-393782D01*
Y-387117D01*
X-161618Y-385451D02*
X-164951Y-387117D01*
X-168283Y-390449D01*
Y-393782D01*
X-166617Y-395448D01*
X-163284D01*
X-161618Y-393782D01*
Y-392116D01*
X-163284Y-390449D01*
X-168283D01*
X-158286Y-395448D02*
X-154954D01*
X-156620D01*
Y-385451D01*
X-158286Y-387117D01*
X-149955Y-395448D02*
X-146623D01*
X-148289D01*
Y-385451D01*
X-149955Y-387117D01*
X-134960Y-395448D02*
X-141625D01*
X-134960Y-388783D01*
Y-387117D01*
X-136626Y-385451D01*
X-139959D01*
X-141625Y-387117D01*
X13970Y-398780D02*
Y-386784D01*
X21967Y-398780D01*
Y-386784D01*
X31964Y-398780D02*
X27966D01*
X25966Y-396781D01*
Y-392782D01*
X27966Y-390783D01*
X31964D01*
X33963Y-392782D01*
Y-394781D01*
X25966D01*
X45960Y-390783D02*
X39962D01*
X37962Y-392782D01*
Y-396781D01*
X39962Y-398780D01*
X45960D01*
X51958Y-390783D02*
X55956D01*
X57956Y-392782D01*
Y-398780D01*
X51958D01*
X49958Y-396781D01*
X51958Y-394781D01*
X57956D01*
X63954Y-388783D02*
Y-390783D01*
X61954D01*
X65953D01*
X63954D01*
Y-396781D01*
X65953Y-398780D01*
X71951D02*
X75950D01*
X73951D01*
Y-390783D01*
X71951D01*
X93944Y-386784D02*
Y-388783D01*
X97943Y-392782D01*
X101942Y-388783D01*
Y-386784D01*
X97943Y-392782D02*
Y-398780D01*
X111938D02*
X107940D01*
X105940Y-396781D01*
Y-392782D01*
X107940Y-390783D01*
X111938D01*
X113938Y-392782D01*
Y-394781D01*
X105940D01*
X117936Y-398780D02*
X123934D01*
X125934Y-396781D01*
X123934Y-394781D01*
X119936D01*
X117936Y-392782D01*
X119936Y-390783D01*
X125934D01*
X129932Y-398780D02*
X133931D01*
X131932D01*
Y-390783D01*
X129932D01*
X139929Y-398780D02*
X143928D01*
X141929D01*
Y-386784D01*
X139929D01*
X149926D02*
Y-398780D01*
X155924D01*
X157923Y-396781D01*
Y-394781D01*
Y-392782D01*
X155924Y-390783D01*
X149926D01*
X163922D02*
X167920D01*
X169920Y-392782D01*
Y-398780D01*
X163922D01*
X161922Y-396781D01*
X163922Y-394781D01*
X169920D01*
X173918Y-398780D02*
X179916D01*
X181916Y-396781D01*
X179916Y-394781D01*
X175918D01*
X173918Y-392782D01*
X175918Y-390783D01*
X181916D01*
X205908Y-398780D02*
X197910D01*
X205908Y-390783D01*
Y-388783D01*
X203909Y-386784D01*
X199910D01*
X197910Y-388783D01*
X209907D02*
X211906Y-386784D01*
X215905D01*
X217904Y-388783D01*
Y-390783D01*
X215905Y-392782D01*
X213905D01*
X215905D01*
X217904Y-394781D01*
Y-396781D01*
X215905Y-398780D01*
X211906D01*
X209907Y-396781D01*
X221903Y-398780D02*
X225901D01*
X223902D01*
Y-386784D01*
X221903Y-388783D01*
X231900D02*
X233899Y-386784D01*
X237898D01*
X239897Y-388783D01*
Y-396781D01*
X237898Y-398780D01*
X233899D01*
X231900Y-396781D01*
Y-388783D01*
X243896D02*
X245895Y-386784D01*
X249894D01*
X251893Y-388783D01*
Y-396781D01*
X249894Y-398780D01*
X245895D01*
X243896Y-396781D01*
Y-388783D01*
X263889Y-386784D02*
X259890Y-388783D01*
X255892Y-392782D01*
Y-396781D01*
X257891Y-398780D01*
X261890D01*
X263889Y-396781D01*
Y-394781D01*
X261890Y-392782D01*
X255892D01*
X267888Y-388783D02*
X269887Y-386784D01*
X273886D01*
X275885Y-388783D01*
Y-396781D01*
X273886Y-398780D01*
X269887D01*
X267888Y-396781D01*
Y-388783D01*
X287881Y-386784D02*
X283883Y-388783D01*
X279884Y-392782D01*
Y-396781D01*
X281883Y-398780D01*
X285882D01*
X287881Y-396781D01*
Y-394781D01*
X285882Y-392782D01*
X279884D01*
X291880Y-388783D02*
X293879Y-386784D01*
X297878D01*
X299877Y-388783D01*
Y-390783D01*
X297878Y-392782D01*
X295879D01*
X297878D01*
X299877Y-394781D01*
Y-396781D01*
X297878Y-398780D01*
X293879D01*
X291880Y-396781D01*
D13*
X-353060Y-240030D02*
Y-237490D01*
Y-238760D02*
Y-237490D01*
X-354330Y-238760D02*
X-351790D01*
X-312420Y49530D02*
X-309880D01*
X-311150Y48260D02*
Y49530D01*
Y48260D02*
Y50800D01*
M02*
