G04*
G04 #@! TF.GenerationSoftware,Altium Limited,Altium Designer,26.5.0 (11)*
G04*
G04 Layer_Physical_Order=2*
G04 Layer_Color=36540*
G04 Board_Origin=39150000|34300000*
%FSLAX44Y44*%
%MOMM*%
G71*
G04*
G04 #@! TF.SameCoordinates,F537E913-F8B3-490E-9254-C49D637AD130*
G04*
G04*
G04 #@! TF.FilePolarity,Positive*
G04*
G01*
G75*
%ADD19R,2.5000X2.5000*%
%ADD20C,2.5000*%
%ADD21C,0.6000*%
%ADD22C,0.5000*%
%ADD23C,0.4000*%
%ADD24C,0.3000*%
G36*
X321307Y286492D02*
X320040Y-415290D01*
X-379730D01*
Y288290D01*
X319512D01*
X321307Y286492D01*
D02*
G37*
%LPC*%
G36*
X-53814Y34480D02*
X-55406D01*
X-56876Y33871D01*
X-58001Y32746D01*
X-58610Y31276D01*
Y29684D01*
X-58001Y28214D01*
X-56876Y27089D01*
X-55406Y26480D01*
X-53814D01*
X-52344Y27089D01*
X-51219Y28214D01*
X-50610Y29684D01*
Y31276D01*
X-51219Y32746D01*
X-52344Y33871D01*
X-53814Y34480D01*
D02*
G37*
G36*
X-317970Y46520D02*
X-344970D01*
Y19520D01*
X-317970D01*
Y46520D01*
D02*
G37*
G36*
X-247650Y4200D02*
X-249518Y3427D01*
X-250190Y2755D01*
X-250862Y3427D01*
X-252730Y4200D01*
Y-1270D01*
Y-6740D01*
X-250862Y-5967D01*
X-250190Y-5295D01*
X-249518Y-5967D01*
X-247650Y-6740D01*
Y-1270D01*
Y4200D01*
D02*
G37*
G36*
X-255270D02*
X-257138Y3427D01*
X-257810Y2755D01*
X-258482Y3427D01*
X-260350Y4200D01*
Y-1270D01*
Y-6740D01*
X-258482Y-5967D01*
X-257810Y-5295D01*
X-257138Y-5967D01*
X-255270Y-6740D01*
Y-1270D01*
Y4200D01*
D02*
G37*
G36*
X-245110D02*
Y0D01*
X-240910D01*
X-241683Y1868D01*
X-243242Y3427D01*
X-245110Y4200D01*
D02*
G37*
G36*
X-262890D02*
X-264758Y3427D01*
X-266317Y1868D01*
X-267090Y0D01*
X-262890D01*
Y4200D01*
D02*
G37*
G36*
X-240910Y-2540D02*
X-245110D01*
Y-6740D01*
X-243242Y-5967D01*
X-241683Y-4408D01*
X-240910Y-2540D01*
D02*
G37*
G36*
X-262890D02*
X-267090D01*
X-266317Y-4408D01*
X-264758Y-5967D01*
X-262890Y-6740D01*
Y-2540D01*
D02*
G37*
G36*
X-329989Y-2740D02*
X-330200D01*
Y-16510D01*
X-316430D01*
Y-16299D01*
X-317008Y-13393D01*
X-318142Y-10656D01*
X-319788Y-8193D01*
X-321883Y-6098D01*
X-324346Y-4452D01*
X-327083Y-3318D01*
X-329989Y-2740D01*
D02*
G37*
G36*
X-332740D02*
X-332951D01*
X-335857Y-3318D01*
X-338594Y-4452D01*
X-341057Y-6098D01*
X-343152Y-8193D01*
X-344798Y-10656D01*
X-345932Y-13393D01*
X-346510Y-16299D01*
Y-16510D01*
X-332740D01*
Y-2740D01*
D02*
G37*
G36*
X-316430Y-19050D02*
X-330200D01*
Y-32820D01*
X-329989D01*
X-327083Y-32242D01*
X-324346Y-31108D01*
X-321883Y-29462D01*
X-319788Y-27367D01*
X-318142Y-24904D01*
X-317008Y-22167D01*
X-316430Y-19261D01*
Y-19050D01*
D02*
G37*
G36*
X-332740D02*
X-346510D01*
Y-19261D01*
X-345932Y-22167D01*
X-344798Y-24904D01*
X-343152Y-27367D01*
X-341057Y-29462D01*
X-338594Y-31108D01*
X-335857Y-32242D01*
X-332951Y-32820D01*
X-332740D01*
Y-19050D01*
D02*
G37*
G36*
X13970Y-31360D02*
Y-35560D01*
X18170D01*
X17397Y-33692D01*
X15838Y-32133D01*
X13970Y-31360D01*
D02*
G37*
G36*
X11430D02*
X9562Y-32133D01*
X8003Y-33692D01*
X7230Y-35560D01*
X11430D01*
Y-31360D01*
D02*
G37*
G36*
X18170Y-38100D02*
X13970D01*
Y-42300D01*
X15838Y-41527D01*
X17397Y-39968D01*
X18170Y-38100D01*
D02*
G37*
G36*
X11430D02*
X7230D01*
X8003Y-39968D01*
X9562Y-41527D01*
X11430Y-42300D01*
Y-38100D01*
D02*
G37*
G36*
X52567Y-61000D02*
X51573D01*
X50654Y-61381D01*
X49951Y-62084D01*
X49570Y-63003D01*
Y-63997D01*
X49951Y-64916D01*
X50654Y-65619D01*
X51573Y-66000D01*
X52567D01*
X53486Y-65619D01*
X54189Y-64916D01*
X54570Y-63997D01*
Y-63003D01*
X54189Y-62084D01*
X53486Y-61381D01*
X52567Y-61000D01*
D02*
G37*
G36*
X24907D02*
X23913D01*
X22994Y-61381D01*
X22291Y-62084D01*
X21910Y-63003D01*
Y-63997D01*
X22291Y-64916D01*
X22994Y-65619D01*
X23560Y-68283D01*
X22575Y-69470D01*
X19910Y-69512D01*
X18945Y-68547D01*
X17360Y-67891D01*
Y-72820D01*
X16090D01*
Y-74090D01*
X11161D01*
X11817Y-75675D01*
X13027Y-76884D01*
X13139Y-78320D01*
X13027Y-79756D01*
X11817Y-80965D01*
X11161Y-82550D01*
X16090D01*
Y-85090D01*
X11161D01*
X11817Y-86675D01*
X13027Y-87884D01*
X13139Y-89320D01*
X13027Y-90756D01*
X11817Y-91965D01*
X11161Y-93550D01*
X16090D01*
Y-94820D01*
X17360D01*
Y-99749D01*
X18945Y-99093D01*
X20154Y-97883D01*
X21590Y-97771D01*
X23026Y-97883D01*
X24235Y-99093D01*
X25820Y-99749D01*
Y-94820D01*
X28360D01*
Y-99749D01*
X29945Y-99093D01*
X31186Y-97851D01*
X33413Y-97096D01*
X33675Y-97150D01*
X34537Y-97892D01*
X35174Y-98439D01*
X35606Y-98618D01*
X36093Y-98820D01*
X37087D01*
X38006Y-98439D01*
X38709Y-97736D01*
X39090Y-96817D01*
Y-95823D01*
X38709Y-94904D01*
X38006Y-94201D01*
X37087Y-93820D01*
X36270D01*
X36093Y-93820D01*
X35224Y-94171D01*
X34069Y-94638D01*
Y-94638D01*
X34069Y-94638D01*
D01*
X33875Y-94616D01*
D01*
X33749Y-94602D01*
X32130Y-93926D01*
Y-93818D01*
X31363Y-91965D01*
X30153Y-90756D01*
X30041Y-89320D01*
X30153Y-87884D01*
X31363Y-86675D01*
X32019Y-85090D01*
X27090D01*
Y-82550D01*
X32019D01*
X31363Y-80965D01*
X30153Y-79756D01*
X30041Y-78320D01*
X30153Y-76884D01*
X31363Y-75675D01*
X32019Y-74090D01*
X27090D01*
Y-71550D01*
X32019D01*
X31363Y-69965D01*
X29945Y-68547D01*
X28093Y-67780D01*
X26984D01*
X26584Y-67034D01*
X26205Y-65240D01*
X26529Y-64916D01*
X26910Y-63997D01*
Y-63003D01*
X26529Y-62084D01*
X25826Y-61381D01*
X24907Y-61000D01*
D02*
G37*
G36*
X14820Y-67891D02*
X13235Y-68547D01*
X11817Y-69965D01*
X11161Y-71550D01*
X14820D01*
Y-67891D01*
D02*
G37*
G36*
X38597Y-68620D02*
X37603D01*
X36684Y-69001D01*
X35981Y-69704D01*
X35600Y-70623D01*
Y-71617D01*
X35981Y-72536D01*
X36684Y-73239D01*
X37603Y-73620D01*
X38597D01*
X39516Y-73239D01*
X40219Y-72536D01*
X40600Y-71617D01*
Y-70623D01*
X40219Y-69704D01*
X39516Y-69001D01*
X38597Y-68620D01*
D02*
G37*
G36*
X109717Y-94020D02*
X108723D01*
X107804Y-94401D01*
X107101Y-95104D01*
X106720Y-96023D01*
Y-97017D01*
X107101Y-97936D01*
X107804Y-98639D01*
X108723Y-99020D01*
X109717D01*
X110636Y-98639D01*
X111339Y-97936D01*
X111720Y-97017D01*
Y-96023D01*
X111339Y-95104D01*
X110636Y-94401D01*
X109717Y-94020D01*
D02*
G37*
G36*
X14820Y-96090D02*
X11161D01*
X11817Y-97675D01*
X13235Y-99093D01*
X14820Y-99749D01*
Y-96090D01*
D02*
G37*
G36*
X231737Y-118920D02*
X230543D01*
X229441Y-119377D01*
X228597Y-120221D01*
X228140Y-121323D01*
Y-122517D01*
X228597Y-123619D01*
X229441Y-124463D01*
X230543Y-124920D01*
X231737D01*
X232839Y-124463D01*
X233683Y-123619D01*
X234140Y-122517D01*
Y-121323D01*
X233683Y-120221D01*
X232839Y-119377D01*
X231737Y-118920D01*
D02*
G37*
G36*
X189606Y-133910D02*
X188214D01*
X186927Y-134443D01*
X185943Y-135427D01*
X185410Y-136714D01*
Y-138106D01*
X185943Y-139393D01*
X186927Y-140377D01*
X188214Y-140910D01*
X189606D01*
X190893Y-140377D01*
X191877Y-139393D01*
X192410Y-138106D01*
Y-136714D01*
X191877Y-135427D01*
X190893Y-134443D01*
X189606Y-133910D01*
D02*
G37*
G36*
X179606D02*
X178214D01*
X176927Y-134443D01*
X175943Y-135427D01*
X175410Y-136714D01*
Y-138106D01*
X175943Y-139393D01*
X176927Y-140377D01*
X178214Y-140910D01*
X179606D01*
X180893Y-140377D01*
X181877Y-139393D01*
X182410Y-138106D01*
Y-136714D01*
X181877Y-135427D01*
X180893Y-134443D01*
X179606Y-133910D01*
D02*
G37*
G36*
X159606D02*
X158214D01*
X156927Y-134443D01*
X155943Y-135427D01*
X155410Y-136714D01*
Y-138106D01*
X155943Y-139393D01*
X156927Y-140377D01*
X158214Y-140910D01*
X159606D01*
X160893Y-140377D01*
X161877Y-139393D01*
X162410Y-138106D01*
Y-136714D01*
X161877Y-135427D01*
X160893Y-134443D01*
X159606Y-133910D01*
D02*
G37*
G36*
X149606D02*
X148214D01*
X146927Y-134443D01*
X145943Y-135427D01*
X145410Y-136714D01*
Y-138106D01*
X145943Y-139393D01*
X146927Y-140377D01*
X148214Y-140910D01*
X149606D01*
X150893Y-140377D01*
X151877Y-139393D01*
X152410Y-138106D01*
Y-136714D01*
X151877Y-135427D01*
X150893Y-134443D01*
X149606Y-133910D01*
D02*
G37*
G36*
X270886Y-135180D02*
X269494D01*
X268207Y-135713D01*
X267223Y-136697D01*
X266690Y-137984D01*
Y-139376D01*
X267223Y-140663D01*
X268207Y-141647D01*
X269494Y-142180D01*
X270886D01*
X272173Y-141647D01*
X273157Y-140663D01*
X273690Y-139376D01*
Y-137984D01*
X273157Y-136697D01*
X272173Y-135713D01*
X270886Y-135180D01*
D02*
G37*
G36*
X260886D02*
X259494D01*
X258207Y-135713D01*
X257223Y-136697D01*
X256690Y-137984D01*
Y-139376D01*
X257223Y-140663D01*
X258207Y-141647D01*
X259494Y-142180D01*
X260886D01*
X262173Y-141647D01*
X263157Y-140663D01*
X263690Y-139376D01*
Y-137984D01*
X263157Y-136697D01*
X262173Y-135713D01*
X260886Y-135180D01*
D02*
G37*
G36*
X250886D02*
X249494D01*
X248207Y-135713D01*
X247223Y-136697D01*
X246690Y-137984D01*
Y-139376D01*
X247223Y-140663D01*
X248207Y-141647D01*
X249494Y-142180D01*
X250886D01*
X252173Y-141647D01*
X253157Y-140663D01*
X253690Y-139376D01*
Y-137984D01*
X253157Y-136697D01*
X252173Y-135713D01*
X250886Y-135180D01*
D02*
G37*
G36*
X240886D02*
X239494D01*
X238207Y-135713D01*
X237223Y-136697D01*
X236690Y-137984D01*
Y-139376D01*
X237223Y-140663D01*
X238207Y-141647D01*
X239494Y-142180D01*
X240886D01*
X242173Y-141647D01*
X243157Y-140663D01*
X243690Y-139376D01*
Y-137984D01*
X243157Y-136697D01*
X242173Y-135713D01*
X240886Y-135180D01*
D02*
G37*
G36*
X230886D02*
X229494D01*
X228207Y-135713D01*
X227223Y-136697D01*
X226690Y-137984D01*
Y-139376D01*
X227223Y-140663D01*
X228207Y-141647D01*
X229494Y-142180D01*
X230886D01*
X232173Y-141647D01*
X233157Y-140663D01*
X233690Y-139376D01*
Y-137984D01*
X233157Y-136697D01*
X232173Y-135713D01*
X230886Y-135180D01*
D02*
G37*
G36*
X169606Y-133910D02*
X168214D01*
X166927Y-134443D01*
X165943Y-135427D01*
X165410Y-136714D01*
Y-138106D01*
X165943Y-139393D01*
X166062Y-139512D01*
X166651Y-141140D01*
X166062Y-142768D01*
X165943Y-142887D01*
X165410Y-144174D01*
Y-145566D01*
X165943Y-146853D01*
X166927Y-147837D01*
X168214Y-148370D01*
X169606D01*
X170893Y-147837D01*
X171877Y-146853D01*
X172410Y-145566D01*
Y-144174D01*
X171877Y-142887D01*
X171758Y-142768D01*
X171169Y-141140D01*
X171758Y-139512D01*
X171877Y-139393D01*
X172410Y-138106D01*
Y-136714D01*
X171877Y-135427D01*
X170893Y-134443D01*
X169606Y-133910D01*
D02*
G37*
G36*
X189606Y-143910D02*
X188214D01*
X186927Y-144443D01*
X185943Y-145427D01*
X185410Y-146714D01*
Y-148106D01*
X185943Y-149393D01*
X186927Y-150377D01*
X188214Y-150910D01*
X189606D01*
X190893Y-150377D01*
X191877Y-149393D01*
X192410Y-148106D01*
Y-146714D01*
X191877Y-145427D01*
X190893Y-144443D01*
X189606Y-143910D01*
D02*
G37*
G36*
X179606D02*
X178214D01*
X176927Y-144443D01*
X175943Y-145427D01*
X175410Y-146714D01*
Y-148106D01*
X175943Y-149393D01*
X176927Y-150377D01*
X178214Y-150910D01*
X179606D01*
X180893Y-150377D01*
X181877Y-149393D01*
X182410Y-148106D01*
Y-146714D01*
X181877Y-145427D01*
X180893Y-144443D01*
X179606Y-143910D01*
D02*
G37*
G36*
X159606D02*
X158214D01*
X156927Y-144443D01*
X155943Y-145427D01*
X155410Y-146714D01*
Y-148106D01*
X155943Y-149393D01*
X156927Y-150377D01*
X158214Y-150910D01*
X159606D01*
X160893Y-150377D01*
X161877Y-149393D01*
X162410Y-148106D01*
Y-146714D01*
X161877Y-145427D01*
X160893Y-144443D01*
X159606Y-143910D01*
D02*
G37*
G36*
X149606D02*
X148214D01*
X146927Y-144443D01*
X145943Y-145427D01*
X145410Y-146714D01*
Y-148106D01*
X145943Y-149393D01*
X146927Y-150377D01*
X148214Y-150910D01*
X149606D01*
X150893Y-150377D01*
X151877Y-149393D01*
X152410Y-148106D01*
Y-146714D01*
X151877Y-145427D01*
X150893Y-144443D01*
X149606Y-143910D01*
D02*
G37*
G36*
X270886Y-145180D02*
X269494D01*
X268207Y-145713D01*
X267223Y-146697D01*
X266690Y-147984D01*
Y-149376D01*
X267223Y-150663D01*
X268207Y-151647D01*
X269494Y-152180D01*
X270886D01*
X272173Y-151647D01*
X273157Y-150663D01*
X273690Y-149376D01*
Y-147984D01*
X273157Y-146697D01*
X272173Y-145713D01*
X270886Y-145180D01*
D02*
G37*
G36*
X260886D02*
X259494D01*
X258207Y-145713D01*
X257223Y-146697D01*
X256690Y-147984D01*
Y-149376D01*
X257223Y-150663D01*
X258207Y-151647D01*
X259494Y-152180D01*
X260886D01*
X262173Y-151647D01*
X263157Y-150663D01*
X263690Y-149376D01*
Y-147984D01*
X263157Y-146697D01*
X262173Y-145713D01*
X260886Y-145180D01*
D02*
G37*
G36*
X240886D02*
X239494D01*
X238207Y-145713D01*
X237223Y-146697D01*
X236690Y-147984D01*
Y-149376D01*
X237223Y-150663D01*
X238207Y-151647D01*
X239494Y-152180D01*
X240886D01*
X242173Y-151647D01*
X243157Y-150663D01*
X243690Y-149376D01*
Y-147984D01*
X243157Y-146697D01*
X242173Y-145713D01*
X240886Y-145180D01*
D02*
G37*
G36*
X230886D02*
X229494D01*
X228207Y-145713D01*
X227223Y-146697D01*
X226690Y-147984D01*
Y-149376D01*
X227223Y-150663D01*
X228207Y-151647D01*
X229494Y-152180D01*
X230886D01*
X232173Y-151647D01*
X233157Y-150663D01*
X233690Y-149376D01*
Y-147984D01*
X233157Y-146697D01*
X232173Y-145713D01*
X230886Y-145180D01*
D02*
G37*
G36*
X189606Y-153910D02*
X188214D01*
X186927Y-154443D01*
X185943Y-155427D01*
X185410Y-156714D01*
Y-158106D01*
X185943Y-159393D01*
X186927Y-160377D01*
X188214Y-160910D01*
X189606D01*
X190893Y-160377D01*
X191877Y-159393D01*
X192410Y-158106D01*
Y-156714D01*
X191877Y-155427D01*
X190893Y-154443D01*
X189606Y-153910D01*
D02*
G37*
G36*
X179606D02*
X178214D01*
X176927Y-154443D01*
X175943Y-155427D01*
X175410Y-156714D01*
Y-158106D01*
X175943Y-159393D01*
X176927Y-160377D01*
X178214Y-160910D01*
X179606D01*
X180893Y-160377D01*
X181877Y-159393D01*
X182410Y-158106D01*
Y-156714D01*
X181877Y-155427D01*
X180893Y-154443D01*
X179606Y-153910D01*
D02*
G37*
G36*
X169606D02*
X168214D01*
X166927Y-154443D01*
X165943Y-155427D01*
X165410Y-156714D01*
Y-158106D01*
X165943Y-159393D01*
X166927Y-160377D01*
X168214Y-160910D01*
X169606D01*
X170893Y-160377D01*
X171877Y-159393D01*
X172410Y-158106D01*
Y-156714D01*
X171877Y-155427D01*
X170893Y-154443D01*
X169606Y-153910D01*
D02*
G37*
G36*
X159606D02*
X158214D01*
X156927Y-154443D01*
X155943Y-155427D01*
X155410Y-156714D01*
Y-158106D01*
X155943Y-159393D01*
X156927Y-160377D01*
X158214Y-160910D01*
X159606D01*
X160893Y-160377D01*
X161877Y-159393D01*
X162410Y-158106D01*
Y-156714D01*
X161877Y-155427D01*
X160893Y-154443D01*
X159606Y-153910D01*
D02*
G37*
G36*
X149606D02*
X148214D01*
X146927Y-154443D01*
X145943Y-155427D01*
X145410Y-156714D01*
Y-158106D01*
X145943Y-159393D01*
X146927Y-160377D01*
X148214Y-160910D01*
X149606D01*
X150893Y-160377D01*
X151877Y-159393D01*
X152410Y-158106D01*
Y-156714D01*
X151877Y-155427D01*
X150893Y-154443D01*
X149606Y-153910D01*
D02*
G37*
G36*
X270886Y-155180D02*
X269494D01*
X268207Y-155713D01*
X267223Y-156697D01*
X266690Y-157984D01*
Y-159376D01*
X267223Y-160663D01*
X268207Y-161647D01*
X269494Y-162180D01*
X270886D01*
X272173Y-161647D01*
X273157Y-160663D01*
X273690Y-159376D01*
Y-157984D01*
X273157Y-156697D01*
X272173Y-155713D01*
X270886Y-155180D01*
D02*
G37*
G36*
X260886D02*
X259494D01*
X258207Y-155713D01*
X257223Y-156697D01*
X256690Y-157984D01*
Y-159376D01*
X257223Y-160663D01*
X258207Y-161647D01*
X259494Y-162180D01*
X260886D01*
X262173Y-161647D01*
X263157Y-160663D01*
X263690Y-159376D01*
Y-157984D01*
X263157Y-156697D01*
X262173Y-155713D01*
X260886Y-155180D01*
D02*
G37*
G36*
X250886Y-147720D02*
X249494D01*
X248207Y-148253D01*
X247223Y-149237D01*
X246690Y-150524D01*
Y-151916D01*
X247223Y-153203D01*
X247342Y-153322D01*
X247931Y-154950D01*
X247342Y-156578D01*
X247223Y-156697D01*
X246690Y-157984D01*
Y-159376D01*
X247223Y-160663D01*
X248207Y-161647D01*
X249494Y-162180D01*
X250886D01*
X252173Y-161647D01*
X253157Y-160663D01*
X253690Y-159376D01*
Y-157984D01*
X253157Y-156697D01*
X253038Y-156578D01*
X252449Y-154950D01*
X253038Y-153322D01*
X253157Y-153203D01*
X253690Y-151916D01*
Y-150524D01*
X253157Y-149237D01*
X252173Y-148253D01*
X250886Y-147720D01*
D02*
G37*
G36*
X240886Y-155180D02*
X239494D01*
X238207Y-155713D01*
X237223Y-156697D01*
X236690Y-157984D01*
Y-159376D01*
X237223Y-160663D01*
X238207Y-161647D01*
X239494Y-162180D01*
X240886D01*
X242173Y-161647D01*
X243157Y-160663D01*
X243690Y-159376D01*
Y-157984D01*
X243157Y-156697D01*
X242173Y-155713D01*
X240886Y-155180D01*
D02*
G37*
G36*
X230886D02*
X229494D01*
X228207Y-155713D01*
X227223Y-156697D01*
X226690Y-157984D01*
Y-159376D01*
X227223Y-160663D01*
X228207Y-161647D01*
X229494Y-162180D01*
X230886D01*
X232173Y-161647D01*
X233157Y-160663D01*
X233690Y-159376D01*
Y-157984D01*
X233157Y-156697D01*
X232173Y-155713D01*
X230886Y-155180D01*
D02*
G37*
G36*
X60960Y-164710D02*
Y-168910D01*
X65160D01*
X64387Y-167042D01*
X62828Y-165483D01*
X60960Y-164710D01*
D02*
G37*
G36*
X58420D02*
X56552Y-165483D01*
X54993Y-167042D01*
X54220Y-168910D01*
X58420D01*
Y-164710D01*
D02*
G37*
G36*
X-13970D02*
Y-168910D01*
X-9770D01*
X-10543Y-167042D01*
X-12102Y-165483D01*
X-13970Y-164710D01*
D02*
G37*
G36*
X-16510D02*
X-18378Y-165483D01*
X-19937Y-167042D01*
X-20710Y-168910D01*
X-16510D01*
Y-164710D01*
D02*
G37*
G36*
X-331259Y-156410D02*
X-331470D01*
Y-170180D01*
X-317700D01*
Y-169969D01*
X-318278Y-167063D01*
X-319412Y-164326D01*
X-321058Y-161863D01*
X-323153Y-159768D01*
X-325616Y-158122D01*
X-328353Y-156988D01*
X-331259Y-156410D01*
D02*
G37*
G36*
X-334010D02*
X-334221D01*
X-337127Y-156988D01*
X-339864Y-158122D01*
X-342327Y-159768D01*
X-344422Y-161863D01*
X-346068Y-164326D01*
X-347202Y-167063D01*
X-347780Y-169969D01*
Y-170180D01*
X-334010D01*
Y-156410D01*
D02*
G37*
G36*
X151130Y-167250D02*
Y-171450D01*
X155330D01*
X154557Y-169582D01*
X152998Y-168023D01*
X151130Y-167250D01*
D02*
G37*
G36*
X148590D02*
X146722Y-168023D01*
X145163Y-169582D01*
X144390Y-171450D01*
X148590D01*
Y-167250D01*
D02*
G37*
G36*
X-252730Y-172330D02*
X-254598Y-173103D01*
X-255270Y-173775D01*
X-255942Y-173103D01*
X-257810Y-172330D01*
Y-177800D01*
Y-183270D01*
X-255942Y-182497D01*
X-255270Y-181825D01*
X-254598Y-182497D01*
X-252730Y-183270D01*
Y-177800D01*
Y-172330D01*
D02*
G37*
G36*
X-260350D02*
X-262218Y-173103D01*
X-262890Y-173775D01*
X-263562Y-173103D01*
X-265430Y-172330D01*
Y-177800D01*
Y-183270D01*
X-263562Y-182497D01*
X-262890Y-181825D01*
X-262218Y-182497D01*
X-260350Y-183270D01*
Y-177800D01*
Y-172330D01*
D02*
G37*
G36*
X65160Y-171450D02*
X60960D01*
Y-175650D01*
X62828Y-174877D01*
X64387Y-173318D01*
X65160Y-171450D01*
D02*
G37*
G36*
X58420D02*
X54220D01*
X54993Y-173318D01*
X56552Y-174877D01*
X58420Y-175650D01*
Y-171450D01*
D02*
G37*
G36*
X-9770D02*
X-13970D01*
Y-175650D01*
X-12102Y-174877D01*
X-10543Y-173318D01*
X-9770Y-171450D01*
D02*
G37*
G36*
X-16510D02*
X-20710D01*
X-19937Y-173318D01*
X-18378Y-174877D01*
X-16510Y-175650D01*
Y-171450D01*
D02*
G37*
G36*
X-250190Y-172330D02*
Y-176530D01*
X-245990D01*
X-246763Y-174662D01*
X-248322Y-173103D01*
X-250190Y-172330D01*
D02*
G37*
G36*
X-267970D02*
X-269838Y-173103D01*
X-271397Y-174662D01*
X-272170Y-176530D01*
X-267970D01*
Y-172330D01*
D02*
G37*
G36*
X155330Y-173990D02*
X151130D01*
Y-178190D01*
X152998Y-177417D01*
X154557Y-175858D01*
X155330Y-173990D01*
D02*
G37*
G36*
X148590D02*
X144390D01*
X145163Y-175858D01*
X146722Y-177417D01*
X148590Y-178190D01*
Y-173990D01*
D02*
G37*
G36*
X-245990Y-179070D02*
X-250190D01*
Y-183270D01*
X-248322Y-182497D01*
X-246763Y-180938D01*
X-245990Y-179070D01*
D02*
G37*
G36*
X-267970D02*
X-272170D01*
X-271397Y-180938D01*
X-269838Y-182497D01*
X-267970Y-183270D01*
Y-179070D01*
D02*
G37*
G36*
X-317700Y-172720D02*
X-331470D01*
Y-186490D01*
X-331259D01*
X-328353Y-185912D01*
X-325616Y-184778D01*
X-323153Y-183132D01*
X-321058Y-181037D01*
X-319412Y-178574D01*
X-318278Y-175837D01*
X-317700Y-172931D01*
Y-172720D01*
D02*
G37*
G36*
X-334010D02*
X-347780D01*
Y-172931D01*
X-347202Y-175837D01*
X-346068Y-178574D01*
X-344422Y-181037D01*
X-342327Y-183132D01*
X-339864Y-184778D01*
X-337127Y-185912D01*
X-334221Y-186490D01*
X-334010D01*
Y-172720D01*
D02*
G37*
G36*
X10956Y-208683D02*
X9364D01*
X7894Y-209293D01*
X6769Y-210418D01*
X6160Y-211888D01*
Y-213479D01*
X6769Y-214949D01*
X7894Y-216075D01*
X9364Y-216684D01*
X10956D01*
X12426Y-216075D01*
X13551Y-214949D01*
X14160Y-213479D01*
Y-211888D01*
X13551Y-210418D01*
X12426Y-209293D01*
X10956Y-208683D01*
D02*
G37*
G36*
X-319240Y-208750D02*
X-346240D01*
Y-235750D01*
X-319240D01*
Y-208750D01*
D02*
G37*
%LPD*%
D19*
X-331470Y33020D02*
D03*
X-332740Y-222250D02*
D03*
D20*
X-331470Y-17780D02*
D03*
X-332740Y-171450D02*
D03*
D21*
X-54610Y30480D02*
D03*
X10160Y-212684D02*
D03*
X149860Y-172720D02*
D03*
X59690Y-170180D02*
D03*
X12700Y-36830D02*
D03*
X-15240Y-170180D02*
D03*
X-246380Y-1270D02*
D03*
X-254000D02*
D03*
X-261620D02*
D03*
X-251460Y-177800D02*
D03*
X-259080D02*
D03*
X-266700D02*
D03*
D22*
X148910Y-137410D02*
D03*
Y-157410D02*
D03*
X158910Y-147410D02*
D03*
X148910D02*
D03*
X158910Y-157410D02*
D03*
X168910D02*
D03*
Y-137410D02*
D03*
Y-144870D02*
D03*
X178910Y-137410D02*
D03*
Y-157410D02*
D03*
X188910D02*
D03*
X178910Y-147410D02*
D03*
X188910D02*
D03*
Y-137410D02*
D03*
X158910D02*
D03*
X230190Y-138680D02*
D03*
Y-158680D02*
D03*
X240190D02*
D03*
X250190D02*
D03*
X270190D02*
D03*
X260190D02*
D03*
X230190Y-148680D02*
D03*
X240190D02*
D03*
Y-138680D02*
D03*
X250190D02*
D03*
Y-151220D02*
D03*
X270190Y-148680D02*
D03*
X260190Y-138680D02*
D03*
Y-148680D02*
D03*
X270190Y-138680D02*
D03*
X16090Y-94820D02*
D03*
X27090D02*
D03*
X16090Y-83820D02*
D03*
X27090D02*
D03*
X16090Y-72820D02*
D03*
X27090D02*
D03*
D23*
X231140Y-121920D02*
D03*
D24*
X109220Y-96520D02*
D03*
X36590Y-96320D02*
D03*
X38100Y-71120D02*
D03*
X24410Y-63500D02*
D03*
X52070D02*
D03*
M02*
