G04*
G04 #@! TF.GenerationSoftware,Altium Limited,Altium Designer,26.5.0 (11)*
G04*
G04 Layer_Color=2752767*
G04 Board_Origin=39150000|34300000*
%FSLAX44Y44*%
%MOMM*%
G71*
G04*
G04 #@! TF.SameCoordinates,F537E913-F8B3-490E-9254-C49D637AD130*
G04*
G04*
G04 #@! TF.FilePolarity,Positive*
G04*
G01*
G75*
%ADD50C,0.1270*%
%ADD51C,0.1693*%
D50*
X-336550Y27940D02*
Y38100D01*
X-326390D01*
Y27940D01*
X-336550D01*
X-337820Y-227330D02*
Y-217170D01*
X-327660D01*
Y-227330D01*
X-337820D01*
X-336550Y-22860D02*
Y-12700D01*
X-326390D01*
Y-22860D01*
X-336550D01*
X-337820Y-176530D02*
Y-166370D01*
X-327660D01*
Y-176530D01*
X-337820D01*
X-54610Y25400D02*
X-59690Y35560D01*
X-49530D01*
X-54610Y25400D01*
X231140Y-127000D02*
X226060Y-116840D01*
X236220D01*
X231140Y-127000D01*
X10160Y-217764D02*
X5080Y-207603D01*
X15240D01*
X10160Y-217764D01*
X149860Y-177800D02*
X144780Y-167640D01*
X154940D01*
X149860Y-177800D01*
X59690Y-175260D02*
X54610Y-165100D01*
X64770D01*
X59690Y-175260D01*
X12700Y-41910D02*
X7620Y-31750D01*
X17780D01*
X12700Y-41910D01*
X-15240Y-175260D02*
X-20320Y-165100D01*
X-10160D01*
X-15240Y-175260D01*
X-246380Y-6350D02*
X-251460Y3810D01*
X-241300D01*
X-246380Y-6350D01*
X-254000D02*
X-259080Y3810D01*
X-248920D01*
X-254000Y-6350D01*
X-261620D02*
X-266700Y3810D01*
X-256540D01*
X-261620Y-6350D01*
X-251460Y-182880D02*
X-256540Y-172720D01*
X-246380D01*
X-251460Y-182880D01*
X-259080D02*
X-264160Y-172720D01*
X-254000D01*
X-259080Y-182880D01*
X-266700D02*
X-271780Y-172720D01*
X-261620D01*
X-266700Y-182880D01*
D51*
X153990Y-137410D02*
G03*
X153990Y-137410I-5080J0D01*
G01*
Y-157410D02*
G03*
X153990Y-157410I-5080J0D01*
G01*
X163990Y-147410D02*
G03*
X163990Y-147410I-5080J0D01*
G01*
X153990D02*
G03*
X153990Y-147410I-5080J0D01*
G01*
X163990Y-157410D02*
G03*
X163990Y-157410I-5080J0D01*
G01*
X173990D02*
G03*
X173990Y-157410I-5080J0D01*
G01*
Y-137410D02*
G03*
X173990Y-137410I-5080J0D01*
G01*
Y-144870D02*
G03*
X173990Y-144870I-5080J0D01*
G01*
X183990Y-137410D02*
G03*
X183990Y-137410I-5080J0D01*
G01*
Y-157410D02*
G03*
X183990Y-157410I-5080J0D01*
G01*
X193990D02*
G03*
X193990Y-157410I-5080J0D01*
G01*
X183990Y-147410D02*
G03*
X183990Y-147410I-5080J0D01*
G01*
X193990D02*
G03*
X193990Y-147410I-5080J0D01*
G01*
Y-137410D02*
G03*
X193990Y-137410I-5080J0D01*
G01*
X163990D02*
G03*
X163990Y-137410I-5080J0D01*
G01*
X235270Y-138680D02*
G03*
X235270Y-138680I-5080J0D01*
G01*
Y-158680D02*
G03*
X235270Y-158680I-5080J0D01*
G01*
X245270D02*
G03*
X245270Y-158680I-5080J0D01*
G01*
X255270D02*
G03*
X255270Y-158680I-5080J0D01*
G01*
X275270D02*
G03*
X275270Y-158680I-5080J0D01*
G01*
X265270D02*
G03*
X265270Y-158680I-5080J0D01*
G01*
X235270Y-148680D02*
G03*
X235270Y-148680I-5080J0D01*
G01*
X245270D02*
G03*
X245270Y-148680I-5080J0D01*
G01*
Y-138680D02*
G03*
X245270Y-138680I-5080J0D01*
G01*
X255270D02*
G03*
X255270Y-138680I-5080J0D01*
G01*
Y-151220D02*
G03*
X255270Y-151220I-5080J0D01*
G01*
X275270Y-148680D02*
G03*
X275270Y-148680I-5080J0D01*
G01*
X265270Y-138680D02*
G03*
X265270Y-138680I-5080J0D01*
G01*
Y-148680D02*
G03*
X265270Y-148680I-5080J0D01*
G01*
X275270Y-138680D02*
G03*
X275270Y-138680I-5080J0D01*
G01*
X114300Y-96520D02*
G03*
X114300Y-96520I-5080J0D01*
G01*
X41670Y-96320D02*
G03*
X41670Y-96320I-5080J0D01*
G01*
X43180Y-71120D02*
G03*
X43180Y-71120I-5080J0D01*
G01*
X21170Y-94820D02*
G03*
X21170Y-94820I-5080J0D01*
G01*
X32170D02*
G03*
X32170Y-94820I-5080J0D01*
G01*
X21170Y-83820D02*
G03*
X21170Y-83820I-5080J0D01*
G01*
X32170D02*
G03*
X32170Y-83820I-5080J0D01*
G01*
X21170Y-72820D02*
G03*
X21170Y-72820I-5080J0D01*
G01*
X32170D02*
G03*
X32170Y-72820I-5080J0D01*
G01*
X29490Y-63500D02*
G03*
X29490Y-63500I-5080J0D01*
G01*
X57150D02*
G03*
X57150Y-63500I-5080J0D01*
G01*
M02*
