G04*
G04 #@! TF.GenerationSoftware,Altium Limited,Altium Designer,26.5.0 (11)*
G04*
G04 Layer_Color=255*
G04 Board_Origin=39150000|34300000*
%FSLAX44Y44*%
%MOMM*%
G71*
G04*
G04 #@! TF.SameCoordinates,F537E913-F8B3-490E-9254-C49D637AD130*
G04*
G04*
G04 #@! TF.FilePolarity,Positive*
G04*
G01*
G75*
%ADD19R,2.5000X2.5000*%
%ADD20C,2.5000*%
%ADD38R,0.9500X0.9500*%
%ADD39O,0.5500X0.3500*%
%ADD40R,0.9500X0.9500*%
%ADD41R,0.6000X0.5500*%
%ADD42O,0.3500X0.5500*%
%ADD43R,2.1000X3.1000*%
%ADD44R,0.5500X0.6000*%
%ADD45R,1.2000X1.7500*%
%ADD46R,0.2032X0.0254*%
D19*
X-331470Y33020D02*
D03*
X-332740Y-222250D02*
D03*
D20*
X-331470Y-17780D02*
D03*
X-332740Y-171450D02*
D03*
D38*
X-54240Y-40640D02*
D03*
Y-63500D02*
D03*
X-39740D02*
D03*
Y-40640D02*
D03*
X35190Y-16510D02*
D03*
X20690D02*
D03*
X13070Y-36830D02*
D03*
X27570D02*
D03*
X-83450Y-101600D02*
D03*
X-68950D02*
D03*
X-54240Y-85090D02*
D03*
X-39740D02*
D03*
D39*
X36590Y-101320D02*
D03*
Y-96320D02*
D03*
Y-71320D02*
D03*
X6590Y-81320D02*
D03*
Y-101320D02*
D03*
Y-96320D02*
D03*
Y-91320D02*
D03*
Y-76320D02*
D03*
Y-71320D02*
D03*
Y-66320D02*
D03*
X36590Y-76320D02*
D03*
Y-86320D02*
D03*
Y-81320D02*
D03*
Y-66320D02*
D03*
X6590Y-86320D02*
D03*
X36590Y-91320D02*
D03*
D40*
X64770Y-119010D02*
D03*
X88900D02*
D03*
X35560Y-169440D02*
D03*
X10160Y-170710D02*
D03*
Y-156210D02*
D03*
X59690Y-169440D02*
D03*
Y-154940D02*
D03*
X35560D02*
D03*
X88900Y-104510D02*
D03*
X-5080Y-137690D02*
D03*
Y-123190D02*
D03*
X-15240Y-170710D02*
D03*
Y-156210D02*
D03*
X64770Y-104510D02*
D03*
D41*
X-52070Y-137160D02*
D03*
X-43070D02*
D03*
X-52760Y-121920D02*
D03*
X-43760D02*
D03*
X-42490Y-101600D02*
D03*
X-51490D02*
D03*
D42*
X19090Y-63820D02*
D03*
X24090Y-103820D02*
D03*
X19090D02*
D03*
X24090Y-63820D02*
D03*
D43*
X21590Y-83820D02*
D03*
D44*
X-85090Y-80590D02*
D03*
Y-89590D02*
D03*
D45*
X86890Y-80010D02*
D03*
X57890D02*
D03*
D46*
X12700Y-50574D02*
D03*
Y-54074D02*
D03*
M02*
